<?xml version="1.0" standalone="no"?>
<!DOCTYPE svg PUBLIC "-//W3C//DTD SVG 20010904//EN"
 "http://www.w3.org/TR/2001/REC-SVG-20010904/DTD/svg10.dtd">
<svg version="1.0" xmlns="http://www.w3.org/2000/svg"
 width="1000.000000pt" height="662.000000pt" viewBox="0 0 1000.000000 662.000000"
 preserveAspectRatio="xMidYMid meet">

<g transform="translate(0.000000,662.000000) scale(0.100000,-0.100000)"
fill="#000000" stroke="none">
<path d="M1008 5773 c7 -3 16 -2 19 1 4 3 -2 6 -13 5 -11 0 -14 -3 -6 -6z"/>
<path d="M920 5725 c0 -8 -8 -15 -17 -15 -14 0 -15 -2 -4 -9 8 -5 9 -11 3 -15
-6 -3 -8 -15 -5 -26 3 -12 -1 -22 -11 -26 -9 -3 -16 -14 -16 -23 0 -9 -5 -22
-12 -29 -9 -9 -8 -12 7 -13 16 0 13 -4 -10 -15 l-30 -15 30 6 c20 4 25 3 16
-4 -7 -5 -14 -24 -15 -43 -1 -29 -4 -34 -21 -31 -11 2 -14 1 -7 -3 6 -3 12
-15 11 -27 0 -12 -3 -16 -6 -9 -5 13 -25 17 -20 5 2 -8 -6 -13 -24 -13 -5 0
-7 6 -3 13 5 7 0 6 -11 -3 -18 -14 -18 -15 3 -18 12 -2 22 -7 22 -11 0 -5 -12
-7 -27 -4 -28 3 -28 3 -4 -7 18 -8 28 -7 41 5 22 20 36 20 20 0 -7 -9 -10 -18
-7 -22 4 -3 2 -14 -4 -24 -8 -16 -13 -17 -32 -8 l-22 11 23 -21 c27 -26 29
-44 3 -36 -11 3 -24 -1 -32 -11 -12 -15 -12 -16 7 -10 12 4 28 0 40 -10 10 -8
13 -12 5 -8 -10 5 -11 1 -6 -15 5 -16 3 -20 -8 -15 -8 3 -18 1 -21 -4 -7 -12
22 -25 35 -16 5 3 9 1 9 -4 0 -5 -10 -14 -22 -20 l-23 -11 22 0 c12 -1 25 4
28 9 3 6 12 10 18 10 7 0 6 -4 -3 -10 -10 -6 -11 -10 -2 -10 6 0 12 -8 12 -17
-1 -16 -2 -17 -13 -2 -14 18 -56 9 -59 -13 0 -7 -2 -17 -3 -23 -2 -5 -3 -14
-4 -20 -1 -5 -6 -2 -12 8 -10 18 -12 18 -35 -4 -13 -12 -24 -27 -24 -33 0 -5
7 -1 15 10 8 10 15 15 15 9 0 -5 5 -3 10 5 8 12 10 11 10 -7 0 -12 5 -25 10
-28 6 -3 10 -12 9 -18 0 -8 -2 -8 -6 1 -4 10 -8 10 -20 0 -14 -11 -15 -10 -9
10 5 15 3 22 -5 22 -7 0 -9 -3 -6 -7 4 -3 2 -12 -4 -20 -9 -10 -8 -13 1 -13 9
0 7 -7 -5 -20 -10 -11 -14 -20 -9 -20 5 0 17 9 27 20 10 12 22 18 28 15 5 -4
17 -1 25 6 12 10 13 9 8 -4 -3 -9 -13 -18 -22 -20 -12 -3 -10 -5 6 -6 12 0 22
4 22 11 0 6 2 9 5 6 3 -3 2 -13 -1 -23 -5 -13 -14 -15 -35 -11 -16 3 -29 1
-29 -4 0 -6 -7 -10 -15 -10 -8 0 -15 -5 -15 -11 0 -7 7 -8 18 -4 38 16 49 16
63 -1 13 -16 12 -17 -12 -11 -36 9 -41 0 -24 -40 19 -45 20 -43 -12 -44 -25 0
-26 -1 -8 -9 11 -5 14 -9 8 -11 -7 -1 -17 -3 -23 -4 -5 -1 -17 -3 -25 -4 -27
-2 2 -39 32 -43 25 -3 28 -7 31 -45 3 -35 7 -43 23 -43 10 0 19 6 19 13 0 8 7
14 15 14 13 0 13 -3 -2 -19 -10 -11 -31 -18 -57 -19 -23 -1 -32 -3 -21 -6 11
-2 30 -6 43 -9 28 -6 28 -20 0 -30 -37 -13 -68 -11 -68 3 0 10 9 12 35 7 23
-4 35 -2 35 5 0 6 -13 11 -30 11 -16 0 -33 7 -38 16 -6 11 -11 13 -16 5 -4 -6
-3 -11 3 -11 7 0 7 -8 1 -25 -11 -29 2 -41 40 -37 23 2 23 2 6 -9 -18 -11 -18
-12 5 -25 19 -10 20 -13 7 -14 -19 0 -26 -20 -8 -20 6 0 10 -5 10 -11 0 -5 -4
-7 -10 -4 -5 3 -10 1 -10 -5 0 -6 -5 -8 -10 -5 -6 4 -17 1 -25 -5 -12 -10 -12
-14 1 -27 13 -13 13 -17 2 -24 -10 -7 -9 -9 5 -9 12 0 20 10 23 30 4 16 10 28
14 25 4 -2 17 5 28 16 12 11 22 15 22 10 0 -6 -7 -14 -17 -19 -11 -7 -14 -15
-8 -28 5 -11 9 -26 10 -34 0 -8 6 -14 13 -13 15 3 3 -28 -17 -45 -14 -12 -14
-13 2 -8 41 13 67 18 67 12 0 -3 -19 -10 -42 -16 -43 -12 -75 -36 -63 -48 4
-4 10 -1 12 6 7 18 25 15 21 -5 -2 -9 -14 -18 -27 -20 -33 -5 -35 -7 -19 -35
7 -12 14 -25 15 -27 1 -1 12 6 24 18 12 11 25 18 28 15 3 -4 0 -9 -6 -11 -9
-3 -10 -10 -3 -24 7 -13 7 -19 0 -19 -5 0 -10 8 -11 18 0 10 -3 12 -6 5 -2 -7
-11 -13 -19 -13 -12 0 -12 -4 -4 -20 9 -17 8 -20 -12 -21 -19 -1 -18 -3 7 -9
l30 -8 -27 -1 c-16 0 -28 -5 -28 -11 0 -5 12 -11 28 -11 l27 -1 -30 -7 -30 -7
36 -7 c21 -4 43 -15 50 -25 13 -15 12 -16 -4 -3 -15 12 -22 13 -39 2 -15 -9
-18 -9 -13 0 5 7 3 10 -6 7 -8 -2 -15 -17 -17 -31 -2 -15 -10 -27 -18 -27 -8
0 -14 -5 -14 -10 0 -7 6 -7 19 -1 26 14 34 1 14 -21 -9 -10 -13 -21 -10 -25 4
-3 7 -1 7 5 0 7 5 12 11 12 6 0 8 -8 4 -19 -6 -21 25 -47 40 -33 5 4 5 -1 2
-10 -4 -11 1 -22 13 -31 13 -9 16 -17 9 -27 -7 -12 -9 -12 -9 3 0 10 -4 15
-10 12 -5 -3 -10 -1 -10 5 0 6 -7 18 -15 26 -13 13 -16 12 -27 -6 -7 -11 -18
-20 -25 -20 -7 0 -13 -5 -13 -11 0 -6 9 -9 20 -6 15 4 20 1 18 -11 -2 -13 4
-16 25 -14 33 3 35 -11 5 -27 l-23 -12 23 5 c18 3 21 2 12 -9 -6 -7 -8 -19 -4
-28 3 -8 0 -26 -7 -39 -7 -13 -13 -46 -13 -75 -1 -43 2 -53 19 -59 19 -6 19
-6 2 -11 -18 -5 -18 -5 0 -20 17 -13 16 -14 -14 -9 -20 3 -33 1 -36 -8 -4 -9
7 -12 39 -12 31 1 44 -3 44 -13 0 -9 -8 -12 -28 -8 -33 7 -44 1 -59 -35 -10
-22 -9 -29 7 -43 10 -9 16 -23 14 -30 -3 -7 -1 -16 5 -20 16 -9 13 -25 -4 -25
-8 0 -15 -4 -15 -9 0 -5 21 -9 46 -8 31 1 48 -2 50 -11 1 -7 0 -8 -2 -3 -7 13
-99 -23 -100 -39 -1 -9 1 -10 3 -2 3 7 22 11 51 11 26 -1 37 -4 25 -6 -19 -4
-23 -11 -23 -41 0 -21 -7 -48 -16 -61 -12 -17 -13 -26 -5 -34 8 -8 11 -5 11
11 0 12 5 22 11 22 6 0 8 -9 4 -20 -4 -14 -2 -20 8 -20 7 0 14 -7 14 -15 0
-13 -3 -13 -18 1 -17 15 -18 14 -25 -10 -3 -14 -10 -26 -15 -26 -12 0 -11 7 1
31 9 15 7 19 -5 19 -9 0 -14 -4 -11 -9 12 -19 -6 -39 -40 -45 -34 -7 -45 -21
-21 -29 6 -2 39 -2 72 1 l60 5 -34 -32 c-19 -17 -37 -28 -40 -25 -3 3 2 10 12
15 22 13 22 29 0 29 -9 0 -13 -3 -10 -7 4 -3 2 -12 -3 -18 -7 -8 -7 -21 -1
-37 7 -20 6 -24 -9 -25 -13 -1 -17 3 -13 14 3 9 2 14 -3 11 -5 -2 -24 -10 -41
-17 -31 -12 -45 -31 -23 -31 15 0 12 -29 -4 -46 -8 -8 -26 -14 -40 -14 -14 0
-26 -5 -26 -11 0 -8 -24 -9 -80 -4 -56 5 -80 4 -80 -4 0 -6 17 -11 40 -11 34
0 40 -3 40 -21 0 -16 -5 -20 -17 -16 -56 18 -63 19 -63 9 0 -6 10 -13 23 -15
12 -2 -6 -5 -40 -6 l-63 -1 0 -40 0 -40 -40 0 -40 0 0 43 0 43 -40 -4 c-22 -2
-43 -8 -46 -13 -3 -5 -10 -9 -15 -9 -6 0 -7 5 -4 10 3 6 1 10 -4 10 -6 0 -11
-9 -11 -20 0 -16 5 -19 28 -14 42 9 84 -41 52 -61 -5 -3 -10 -1 -10 4 0 6 -4
11 -8 11 -4 0 -8 -18 -7 -40 0 -22 3 -40 8 -40 4 0 7 5 7 11 0 5 5 7 10 4 15
-9 2 -25 -21 -25 -21 0 -26 -16 -6 -23 6 -2 4 -3 -6 -1 -10 1 -21 -4 -23 -11
-3 -8 -12 -11 -20 -8 -8 3 -14 0 -14 -6 0 -8 -6 -7 -20 1 -22 14 -21 33 1 33
21 1 39 14 39 30 0 8 -6 12 -14 9 -11 -4 -13 0 -9 16 4 15 1 21 -8 19 -23 -4
-69 19 -67 33 4 18 50 54 65 50 20 -5 15 12 -8 26 -14 9 -18 19 -14 35 5 16 4
18 -3 8 -5 -7 -15 -10 -21 -7 -10 6 -15 -6 -12 -26 2 -15 -18 -8 -28 10 -8 12
-10 -33 -10 -155 1 -95 5 -175 10 -179 5 -3 9 -11 9 -17 0 -9 -2 -9 -8 0 -5 8
-8 -1 -9 -22 -1 -19 2 -35 6 -35 4 0 6 -13 3 -29 -5 -35 26 -86 57 -94 11 -2
29 2 41 10 20 14 22 14 18 -3 -2 -13 -15 -21 -38 -25 -19 -4 -29 -7 -22 -8 6
0 12 -5 12 -11 0 -5 -8 -7 -18 -4 -13 5 -14 4 -3 -4 9 -7 24 -7 43 0 43 15 58
5 58 -42 l0 -40 61 0 c33 0 70 -5 81 -11 12 -7 18 -7 14 -1 -4 6 13 11 42 14
l47 3 -3 -58 c-3 -51 -1 -61 17 -73 17 -12 21 -26 21 -65 0 -42 3 -49 20 -49
15 0 20 -7 20 -29 0 -16 -6 -32 -13 -35 -9 -5 -9 -7 1 -12 6 -3 12 -23 12 -45
0 -32 -3 -39 -20 -39 -17 0 -20 -7 -20 -40 0 -33 3 -40 20 -40 11 0 20 -4 20
-10 0 -12 -76 -14 -83 -2 -2 4 -2 1 0 -6 1 -8 3 -20 3 -28 0 -10 12 -14 40
-14 32 0 40 -4 40 -18 0 -13 -12 -22 -37 -30 -20 -6 -40 -9 -44 -6 -4 2 -11
-5 -14 -17 -5 -14 -2 -25 6 -30 9 -6 -1 -9 -28 -9 -42 0 -48 -5 -44 -37 1 -7
-7 -23 -18 -34 -16 -17 -23 -20 -34 -10 -8 6 -21 9 -30 5 -8 -3 -24 -1 -35 5
-23 12 -62 3 -62 -15 0 -16 -48 -50 -57 -41 -3 4 0 14 7 23 12 13 11 17 -1 25
-19 12 -29 11 -29 -1 0 -5 -7 -10 -16 -10 -36 0 -43 -30 -44 -176 l0 -141 57
13 c32 6 101 22 153 33 255 58 281 62 342 51 55 -10 123 -46 140 -73 4 -7 8
-28 8 -48 0 -43 22 -65 100 -104 88 -44 161 -96 181 -129 13 -21 19 -51 20
-96 0 -36 3 -73 7 -82 9 -21 90 -83 122 -93 32 -9 70 -44 71 -64 0 -11 2 -12
6 -4 2 7 -5 29 -17 48 -12 19 -18 39 -15 45 4 6 1 18 -6 26 -17 21 -22 40 -22
89 1 31 -1 36 -8 20 -14 -33 1 165 18 224 25 91 77 182 129 226 27 22 71 61
100 86 64 58 146 118 201 149 24 13 41 25 38 28 -4 4 -116 -56 -125 -68 -3 -3
-26 -21 -53 -39 -26 -18 -57 -42 -69 -54 -11 -12 -18 -16 -14 -10 5 9 2 11 -9
7 -9 -4 -14 -12 -11 -19 7 -18 -23 -28 -40 -14 -11 9 -14 7 -15 -12 -1 -19 -2
-20 -6 -5 -7 26 12 42 32 26 10 -8 15 -9 15 -1 0 6 -6 12 -12 13 -7 0 -17 2
-23 3 -5 2 -17 3 -26 4 -12 1 -16 12 -16 49 0 61 -9 137 -17 151 -10 15 -36
14 -37 -1 0 -7 -5 -2 -10 12 -7 17 -7 32 0 48 6 13 11 39 11 58 0 19 5 44 11
56 14 27 3 72 -16 64 -11 -4 -15 3 -15 28 0 18 -7 50 -15 69 -8 20 -15 55 -15
78 0 37 -2 41 -21 36 -14 -4 -19 -2 -16 8 3 7 -3 22 -14 34 -11 12 -15 21 -9
21 5 0 10 5 10 11 0 5 -4 8 -9 5 -10 -7 -21 16 -22 47 0 21 -1 21 -9 2 -5 -11
-9 -15 -9 -10 -1 6 -6 3 -11 -5 -6 -10 -9 28 -8 115 2 128 2 128 5 28 3 -86 6
-103 20 -103 12 0 13 3 4 14 -8 10 -9 21 0 42 6 18 8 58 4 106 -7 74 -18 99
-28 61 -3 -10 -5 9 -5 42 0 40 2 51 7 35 6 -23 8 -23 14 -6 7 19 -6 35 -28 36
-5 0 -3 5 5 10 9 6 10 10 3 10 -8 0 -12 41 -12 141 -1 78 -3 144 -5 148 -6 9
-15 251 -21 546 -3 138 -10 300 -15 360 -5 61 -12 220 -15 355 -3 135 -10 344
-15 465 -5 121 -12 353 -16 515 -3 162 -10 327 -14 365 -12 100 -7 305 8 333
8 14 9 22 2 22 -5 0 -10 -7 -10 -15z m-33 -137 c-3 -8 -6 -5 -6 6 -1 11 2 17
5 13 3 -3 4 -12 1 -19z m-47 -262 c0 -3 -4 -8 -10 -11 -5 -3 -10 -1 -10 4 0 6
5 11 10 11 6 0 10 -2 10 -4z m20 -102 c0 -2 -9 -4 -20 -4 -11 0 -20 4 -20 9 0
5 9 7 20 4 11 -3 20 -7 20 -9z m-45 -112 c3 -9 12 -12 23 -7 12 4 14 3 6 -4
-10 -11 -64 6 -64 20 0 12 29 5 35 -9z m-5 -34 c0 -6 -6 -8 -14 -5 -7 3 -19 0
-25 -6 -15 -15 -14 1 1 17 14 14 38 10 38 -6z m15 -118 c3 -6 -1 -7 -9 -4 -18
7 -21 14 -7 14 6 0 13 -4 16 -10z m-21 -136 c14 -36 3 -40 -77 -22 -16 4 -24
25 -8 22 27 -6 82 -12 69 -8 -21 6 -24 24 -4 24 8 0 17 -7 20 -16z m86 -48 c0
-2 -7 -7 -16 -10 -8 -3 -12 -2 -9 4 6 10 25 14 25 6z m-47 -168 c-4 -7 -8 -22
-8 -32 0 -11 -6 -20 -13 -22 -7 -1 -8 0 -2 3 16 8 12 26 -5 19 -20 -7 -19 -1
2 24 19 22 39 28 26 8z m-53 -8 c0 -5 -4 -10 -10 -10 -5 0 -10 5 -10 10 0 6 5
10 10 10 6 0 10 -4 10 -10z m80 -30 c0 -5 -4 -10 -10 -10 -5 0 -10 5 -10 10 0
6 5 10 10 10 6 0 10 -4 10 -10z m-140 -71 c0 -6 -4 -7 -10 -4 -5 3 -10 11 -10
16 0 6 5 7 10 4 6 -3 10 -11 10 -16z m127 -45 c-3 -3 -12 -4 -19 -1 -8 3 -5 6
6 6 11 1 17 -2 13 -5z m-4 -21 c-7 -2 -19 -2 -25 0 -7 3 -2 5 12 5 14 0 19 -2
13 -5z m-18 -63 c-9 -15 -45 -32 -45 -22 0 5 10 14 23 20 29 14 29 14 22 2z
m25 -20 c0 -5 -5 -10 -11 -10 -5 0 -7 5 -4 10 3 6 8 10 11 10 2 0 4 -4 4 -10z
m-104 -57 c-10 -10 -19 5 -10 18 6 11 8 11 12 0 2 -7 1 -15 -2 -18z m74 -87
c0 -9 -30 -14 -35 -6 -4 6 3 10 14 10 12 0 21 -2 21 -4z m10 -36 c0 -5 -4 -10
-9 -10 -5 0 -18 -3 -28 -6 -16 -5 -16 -4 1 10 23 18 36 20 36 6z m1 -57 c-12
-20 -14 -14 -5 12 4 9 9 14 11 11 3 -2 0 -13 -6 -23z m-68 -15 c-25 -12 -32
-34 -8 -24 8 3 21 9 29 12 8 3 16 -3 19 -15 3 -12 2 -19 -2 -17 -4 3 -16 -5
-26 -16 -12 -15 -14 -23 -7 -26 7 -2 12 -7 12 -12 0 -13 -26 -19 -41 -9 -12 8
-12 10 1 19 13 9 13 11 0 19 -8 6 -11 14 -6 18 5 4 11 3 13 -4 5 -13 43 14 43
31 0 5 -8 2 -17 -7 -15 -13 -21 -13 -35 -3 -16 12 -16 14 0 29 9 9 23 17 32
16 10 0 7 -4 -7 -11z m87 -12 c0 -3 -4 -8 -10 -11 -5 -3 -10 -1 -10 4 0 6 5
11 10 11 6 0 10 -2 10 -4z m-33 -68 c-3 -8 -6 -5 -6 6 -1 11 2 17 5 13 3 -3 4
-12 1 -19z m-19 -52 c-7 -8 -15 -12 -17 -11 -5 6 10 25 20 25 5 0 4 -6 -3 -14z
m-37 -64 c-13 -4 -41 22 -41 39 0 7 11 2 26 -12 14 -13 20 -25 15 -27z m69 8
c-12 -8 -12 -10 -1 -10 8 0 12 -2 9 -5 -3 -3 -13 -2 -22 1 -14 5 -15 9 -4 15
7 5 18 9 23 9 6 0 3 -5 -5 -10z m43 -55 c-3 -9 -8 -14 -10 -11 -3 3 -2 9 2 15
9 16 15 13 8 -4z m-49 -150 c-4 -8 -8 -15 -10 -15 -2 0 -4 7 -4 15 0 8 4 15
10 15 5 0 7 -7 4 -15z m-29 -44 c-3 -6 -11 -11 -16 -11 -5 0 -4 6 3 14 14 16
24 13 13 -3z m-39 -156 c-3 -8 -1 -15 4 -15 6 0 10 -4 10 -10 0 -5 -7 -7 -15
-5 -49 16 -48 15 -35 30 16 20 44 20 36 0z m4 -55 c0 -5 -7 -10 -15 -10 -8 0
-15 5 -15 10 0 6 7 10 15 10 8 0 15 -4 15 -10z m27 -15 c-4 -8 -12 -15 -19
-14 -10 0 -10 2 0 6 6 2 12 12 12 21 0 8 3 13 6 9 4 -3 4 -13 1 -22z m33 -141
c0 -8 -5 -12 -10 -9 -6 4 -8 11 -5 16 9 14 15 11 15 -7z m-33 -210 c-3 -3 -12
-4 -19 -1 -8 3 -5 6 6 6 11 1 17 -2 13 -5z m-17 -31 c0 -5 -12 -9 -27 -10 -19
-1 -22 1 -12 8 17 11 39 12 39 2z m-60 -63 c0 -5 -7 -7 -15 -4 -8 4 -15 8 -15
10 0 2 7 4 15 4 8 0 15 -4 15 -10z m-652 -122 c17 -17 15 -25 -9 -31 -13 -3
-19 -1 -16 6 3 7 11 11 18 9 8 -1 5 4 -5 13 -11 8 -15 15 -10 15 6 0 15 -5 22
-12z m475 -25 c-13 -2 -33 -2 -45 0 -13 2 -3 4 22 4 25 0 35 -2 23 -4z m67 -3
c0 -5 -4 -10 -9 -10 -6 0 -13 5 -16 10 -3 6 1 10 9 10 9 0 16 -4 16 -10z m-67
-17 c-13 -2 -33 -2 -45 0 -13 2 -3 4 22 4 25 0 35 -2 23 -4z m27 -23 c-8 -5
-33 -9 -55 -8 l-40 1 45 7 c25 4 50 8 55 8 6 1 3 -3 -5 -8z m-353 -72 c-3 -7
-5 -2 -5 12 0 14 2 19 5 13 2 -7 2 -19 0 -25z m-164 -114 c15 -82 19 -119 12
-112 -5 5 -10 20 -12 35 -9 75 -17 109 -27 116 -7 6 -6 7 4 4 8 -2 18 -21 23
-43z m57 -33 c0 -42 19 -68 21 -29 1 17 3 18 6 5 2 -9 9 -15 14 -12 5 3 6 -1
3 -9 -3 -9 -13 -16 -21 -16 -13 0 -13 -3 -3 -15 11 -13 15 -13 23 -3 6 9 7 8
3 -4 -3 -10 2 -24 10 -33 13 -13 13 -17 -5 -37 -12 -12 -21 -28 -21 -35 0 -20
-10 -16 -36 15 -26 29 -32 62 -11 63 6 0 3 4 -8 9 -19 8 -19 9 2 9 21 1 22 5
17 49 -3 26 -7 55 -9 65 -2 9 1 17 6 17 5 0 9 -18 9 -39z m200 -51 c-8 -5 -19
-10 -25 -10 -5 0 -3 5 5 10 8 5 20 10 25 10 6 0 3 -5 -5 -10z m-273 -22 c-3
-8 -6 -5 -6 6 -1 11 2 17 5 13 3 -3 4 -12 1 -19z m263 -28 c0 -5 -4 -10 -10
-10 -5 0 -10 5 -10 10 0 6 5 10 10 10 6 0 10 -4 10 -10z m-122 -87 c-6 -7 -14
-13 -19 -13 -5 0 -9 6 -9 13 0 7 9 13 19 13 15 0 17 -3 9 -13z m167 -83 c3 -5
-1 -10 -9 -10 -9 0 -16 5 -16 10 0 6 4 10 9 10 6 0 13 -4 16 -10z m270 -220
c-3 -5 -11 -10 -16 -10 -6 0 -7 5 -4 10 3 6 11 10 16 10 6 0 7 -4 4 -10z m436
-121 c0 -34 -3 -64 -6 -67 -3 -3 -5 28 -5 68 0 40 3 71 6 67 3 -3 6 -34 5 -68z
m56 -21 c-3 -8 -6 -5 -6 6 -1 11 2 17 5 13 3 -3 4 -12 1 -19z m-37 -108 c0
-11 -4 -20 -10 -20 -5 0 -10 9 -10 20 0 11 5 20 10 20 6 0 10 -9 10 -20z m20
-170 c0 -5 6 -7 13 -4 8 3 13 -5 15 -21 1 -14 7 -35 12 -46 8 -15 7 -19 -4
-19 -7 0 -16 -7 -20 -15 -3 -8 -1 -15 4 -15 6 0 10 -8 10 -17 0 -10 7 -27 15
-37 8 -11 15 -27 15 -37 0 -9 10 -28 21 -43 12 -15 19 -30 16 -33 -10 -9 -56
44 -63 71 -3 14 -11 26 -16 26 -15 0 -38 27 -38 44 0 9 5 16 11 16 9 0 7 53
-7 118 -2 12 0 22 6 22 5 0 10 -4 10 -10z m-33 -92 c-2 -18 -4 -6 -4 27 0 33
2 48 4 33 2 -15 2 -42 0 -60z m133 -87 c0 -6 -4 -13 -10 -16 -5 -3 -10 1 -10
9 0 9 5 16 10 16 6 0 10 -4 10 -9z m-85 -91 c6 -23 5 -23 -14 5 -12 17 -21 34
-21 40 0 17 28 -19 35 -45z m51 -15 c4 -8 12 -15 20 -15 17 0 37 -37 30 -56
-3 -8 0 -23 6 -34 15 -24 9 -31 -20 -23 -18 4 -22 11 -19 38 3 27 -1 36 -19
46 -15 7 -24 21 -24 36 0 26 17 31 26 8z m-1006 -59 c0 -3 -4 -8 -10 -11 -5
-3 -10 -1 -10 4 0 6 5 11 10 11 6 0 10 -2 10 -4z m1005 -36 c3 -6 -1 -7 -9 -4
-18 7 -21 14 -7 14 6 0 13 -4 16 -10z m1 -627 c-10 -10 -19 5 -10 18 6 11 8
11 12 0 2 -7 1 -15 -2 -18z"/>
<path d="M866 5692 c-3 -5 1 -9 9 -9 8 0 12 4 9 9 -3 4 -7 8 -9 8 -2 0 -6 -4
-9 -8z"/>
<path d="M870 5660 c0 -5 5 -10 10 -10 6 0 10 5 10 10 0 6 -4 10 -10 10 -5 0
-10 -4 -10 -10z"/>
<path d="M765 5620 c3 -5 8 -10 11 -10 2 0 4 5 4 10 0 6 -5 10 -11 10 -5 0 -7
-4 -4 -10z"/>
<path d="M3421 5564 c0 -11 3 -14 6 -6 3 7 2 16 -1 19 -3 4 -6 -2 -5 -13z"/>
<path d="M4482 5560 c0 -14 2 -19 5 -12 2 6 2 18 0 25 -3 6 -5 1 -5 -13z"/>
<path d="M800 5536 c0 -2 7 -7 16 -10 8 -3 12 -2 9 4 -6 10 -25 14 -25 6z"/>
<path d="M3432 5500 c0 -14 2 -19 5 -12 2 6 2 18 0 25 -3 6 -5 1 -5 -13z"/>
<path d="M4492 5490 c0 -19 2 -27 5 -17 2 9 2 25 0 35 -3 9 -5 1 -5 -18z"/>
<path d="M350 5500 c-8 -5 -10 -10 -5 -10 6 0 17 5 25 10 8 5 11 10 5 10 -5 0
-17 -5 -25 -10z"/>
<path d="M779 5493 c-13 -16 -12 -17 4 -4 16 13 21 21 13 21 -2 0 -10 -8 -17
-17z"/>
<path d="M790 5475 c-19 -14 -29 -25 -22 -25 7 0 21 9 32 20 12 12 25 18 30
15 6 -4 10 -1 10 4 0 17 -13 13 -50 -14z"/>
<path d="M4503 5380 c0 -41 2 -58 4 -37 2 20 2 54 0 75 -2 20 -4 3 -4 -38z"/>
<path d="M3442 5410 c0 -19 2 -27 5 -17 2 9 2 25 0 35 -3 9 -5 1 -5 -18z"/>
<path d="M671 5364 c0 -11 3 -14 6 -6 3 7 2 16 -1 19 -3 4 -6 -2 -5 -13z"/>
<path d="M735 5370 c11 -5 27 -9 35 -9 9 0 8 4 -5 9 -11 5 -27 9 -35 9 -9 0
-8 -4 5 -9z"/>
<path d="M697 5356 c-4 -10 -5 -21 -2 -24 9 -9 17 6 13 25 -3 17 -4 17 -11 -1z"/>
<path d="M795 5360 c-3 -5 -1 -10 4 -10 6 0 11 5 11 10 0 6 -2 10 -4 10 -3 0
-8 -4 -11 -10z"/>
<path d="M720 5309 c0 -5 5 -7 10 -4 6 3 10 8 10 11 0 2 -4 4 -10 4 -5 0 -10
-5 -10 -11z"/>
<path d="M685 5300 c-3 -5 -1 -10 4 -10 6 0 11 5 11 10 0 6 -2 10 -4 10 -3 0
-8 -4 -11 -10z"/>
<path d="M3453 5225 c0 -44 2 -61 4 -37 2 23 2 59 0 80 -2 20 -4 1 -4 -43z"/>
<path d="M4546 5179 c-3 -8 -7 -30 -9 -49 -3 -19 -13 -62 -22 -95 -21 -70 -40
-98 -31 -45 5 30 5 31 -4 11 -6 -13 -19 -36 -31 -52 -14 -20 -19 -41 -17 -66
3 -34 6 -39 35 -43 17 -3 48 -19 67 -37 44 -39 46 -33 5 19 -17 21 -29 41 -27
44 7 7 38 -7 38 -17 0 -5 5 -9 11 -9 8 0 8 5 -1 15 -7 8 -10 22 -6 30 3 8 1
15 -4 15 -6 0 -10 9 -10 20 0 11 -6 20 -12 20 -9 0 -8 4 2 10 13 8 12 10 -2
10 -21 0 -22 8 -7 47 13 33 39 176 34 182 -3 2 -7 -2 -9 -10z m-50 -265 c5
-18 1 -31 -11 -42 -16 -16 -17 -16 -6 6 7 13 8 22 2 22 -5 0 -12 8 -15 18 -3
9 -4 5 -2 -11 3 -21 0 -25 -9 -17 -18 15 -6 50 16 50 12 0 21 -10 25 -26z"/>
<path d="M748 5174 c-3 -3 -4 -14 -1 -24 4 -15 8 -16 18 -7 7 7 10 18 8 24 -5
14 -16 17 -25 7z"/>
<path d="M3496 5159 c-3 -13 -12 -60 -21 -104 -28 -146 -35 -165 -61 -165 -18
0 -29 -9 -41 -36 -16 -32 -16 -38 -2 -62 11 -20 23 -27 45 -28 37 0 61 -13 45
-24 -9 -5 -7 -10 4 -20 13 -11 15 -10 9 6 -20 56 153 -151 282 -336 44 -63
102 -159 129 -212 28 -53 51 -95 53 -94 12 13 -107 235 -155 287 -12 14 -23
28 -23 32 0 18 -229 301 -269 333 -8 6 -11 16 -7 22 3 6 1 14 -5 18 -8 5 -9 3
-4 -6 5 -9 4 -11 -4 -6 -17 11 -2 28 20 21 29 -10 60 25 57 66 -2 33 -30 74
-42 62 -8 -8 -37 17 -31 27 8 12 36 233 30 238 -2 2 -6 -6 -9 -19z"/>
<path d="M5425 5118 c-9 -35 -24 -75 -33 -90 -13 -22 -13 -29 -3 -42 11 -13
10 -20 -3 -41 -9 -14 -21 -23 -26 -20 -16 10 -12 43 11 86 11 23 19 43 16 45
-6 6 -47 -81 -47 -100 0 -33 18 -54 43 -49 19 4 37 -9 92 -69 74 -78 57 -45
-21 41 -48 54 -53 71 -12 51 19 -10 21 -10 11 1 -7 7 -13 24 -13 39 0 32 -14
55 -29 46 -14 -9 -14 -1 -1 22 13 23 42 133 37 138 -2 3 -12 -24 -22 -58z"/>
<path d="M2378 5165 c-3 -5 -11 -36 -18 -68 -15 -65 -47 -108 -36 -47 5 32 5
33 -5 10 -6 -14 -13 -45 -16 -70 -2 -25 -9 -61 -14 -80 l-8 -35 2 37 c2 20 -1
34 -5 32 -4 -3 -8 -14 -8 -25 0 -11 -13 -43 -30 -72 -36 -64 -37 -83 -7 -120
20 -24 26 -26 54 -18 28 8 35 6 59 -17 22 -22 26 -23 20 -7 -5 11 -9 27 -9 35
0 8 -5 18 -11 23 -6 4 3 5 19 2 58 -9 80 -12 68 -8 -10 3 -9 10 2 26 9 15 12
36 8 65 -5 35 -11 46 -32 55 -24 10 -25 11 -5 14 18 3 21 11 20 44 0 21 -3 39
-6 39 -3 0 -20 -25 -39 -55 -19 -31 -36 -54 -38 -51 -2 2 12 42 32 89 19 47
35 94 34 104 0 14 -3 12 -11 -7 -33 -76 -40 -91 -44 -88 -2 2 6 42 17 88 18
78 22 129 7 105z m-54 -189 c-3 -15 -8 -25 -11 -23 -2 3 -1 17 3 31 3 15 8 25
11 23 2 -3 1 -17 -3 -31z"/>
<path d="M7604 5125 c0 -24 3 -42 8 -39 5 3 19 -2 31 -12 18 -15 17 -13 -3 10
-19 22 -21 28 -7 23 11 -4 17 -1 17 8 0 8 -5 15 -12 15 -6 0 -8 3 -5 7 7 6
-11 33 -22 33 -3 0 -6 -20 -7 -45z"/>
<path d="M6925 5120 c-3 -5 -3 -15 1 -21 4 -8 9 -7 15 2 6 10 9 6 9 -14 0 -15
-7 -30 -15 -33 -8 -4 -15 -11 -15 -16 0 -6 7 -7 16 -4 10 4 26 -1 38 -11 21
-18 21 -18 4 3 -23 27 -23 37 2 29 18 -6 17 -2 -7 34 -27 42 -37 48 -48 31z"/>
<path d="M677 5099 c-9 -6 -22 -7 -27 -4 -6 3 -10 1 -10 -4 0 -13 30 -14 50
-1 20 13 9 21 -13 9z"/>
<path d="M5395 5089 c-4 -6 -5 -12 -2 -15 2 -3 7 2 10 11 7 17 1 20 -8 4z"/>
<path d="M6176 5083 c-3 -3 -6 -13 -6 -22 0 -14 2 -14 10 -1 8 12 11 13 19 1
13 -21 1 -51 -21 -51 -11 0 -18 -5 -15 -12 2 -7 11 -12 20 -10 9 2 27 -3 39
-9 l23 -12 -20 23 -20 23 22 -5 c19 -5 21 -3 12 19 -5 14 -7 29 -3 34 3 5 2 8
-3 7 -4 -1 -18 3 -29 10 -12 6 -24 8 -28 5z"/>
<path d="M3433 4998 c-6 -35 -14 -72 -18 -83 -3 -11 0 -8 9 6 14 25 34 139 24
139 -2 0 -9 -28 -15 -62z"/>
<path d="M680 5020 c0 -5 5 -10 10 -10 6 0 10 5 10 10 0 6 -4 10 -10 10 -5 0
-10 -4 -10 -10z"/>
<path d="M690 4946 c0 -4 7 -14 15 -22 8 -9 15 -11 15 -6 0 5 -7 15 -15 22 -8
7 -15 9 -15 6z"/>
<path d="M628 4933 c7 -3 16 -2 19 1 4 3 -2 6 -13 5 -11 0 -14 -3 -6 -6z"/>
<path d="M680 4909 c0 -5 5 -7 10 -4 6 3 10 8 10 11 0 2 -4 4 -10 4 -5 0 -10
-5 -10 -11z"/>
<path d="M689 4873 c-13 -15 -12 -15 9 -4 23 12 28 21 13 21 -5 0 -15 -7 -22
-17z"/>
<path d="M615 4870 c-3 -6 1 -7 9 -4 18 7 21 14 7 14 -6 0 -13 -4 -16 -10z"/>
<path d="M645 4860 c-3 -5 -1 -10 4 -10 6 0 11 5 11 10 0 6 -2 10 -4 10 -3 0
-8 -4 -11 -10z"/>
<path d="M7130 4831 c0 -6 4 -13 10 -16 6 -3 7 1 4 9 -7 18 -14 21 -14 7z"/>
<path d="M7850 4834 c0 -6 7 -19 16 -30 14 -18 14 -18 3 6 -14 31 -19 36 -19
24z"/>
<path d="M640 4826 c0 -2 8 -10 18 -17 15 -13 16 -12 3 4 -13 16 -21 21 -21
13z"/>
<path d="M6447 4655 c48 -93 98 -195 111 -225 14 -34 21 -44 18 -25 -7 34
-167 357 -196 395 -11 14 20 -51 67 -145z"/>
<path d="M495 4790 c-3 -6 1 -7 9 -4 18 7 21 14 7 14 -6 0 -13 -4 -16 -10z"/>
<path d="M3535 4760 c3 -5 8 -10 11 -10 2 0 4 5 4 10 0 6 -5 10 -11 10 -5 0
-7 -4 -4 -10z"/>
<path d="M3500 4756 c0 -2 8 -10 18 -17 15 -13 16 -12 3 4 -13 16 -21 21 -21
13z"/>
<path d="M4603 4730 c14 -19 60 -91 103 -160 105 -171 156 -250 160 -250 6 0
-27 59 -89 160 -25 41 -62 102 -82 136 -20 33 -54 80 -77 105 -30 33 -34 36
-15 9z"/>
<path d="M5548 4744 c6 -11 18 -28 27 -39 15 -19 15 -18 1 12 -9 17 -21 35
-27 39 -8 4 -8 1 -1 -12z"/>
<path d="M7172 4753 c2 -5 21 -43 42 -87 21 -43 47 -101 57 -130 15 -41 18
-44 13 -16 -5 36 -99 240 -109 240 -4 0 -5 -3 -3 -7z"/>
<path d="M7891 4755 c0 -5 6 -21 14 -35 8 -14 14 -20 14 -15 0 6 -6 21 -14 35
-8 14 -14 21 -14 15z"/>
<path d="M668 4743 c7 -3 16 -2 19 1 4 3 -2 6 -13 5 -11 0 -14 -3 -6 -6z"/>
<path d="M2468 4723 c7 -3 16 -2 19 1 4 3 -2 6 -13 5 -11 0 -14 -3 -6 -6z"/>
<path d="M635 4710 c-8 -13 5 -13 25 0 13 8 13 10 -2 10 -9 0 -20 -4 -23 -10z"/>
<path d="M2365 4710 c3 -5 16 -10 28 -10 18 0 19 2 7 10 -20 13 -43 13 -35 0z"/>
<path d="M3547 4709 c7 -7 15 -10 18 -7 3 3 -2 9 -12 12 -14 6 -15 5 -6 -5z"/>
<path d="M578 4683 c6 -2 18 -2 25 0 6 3 1 5 -13 5 -14 0 -19 -2 -12 -5z"/>
<path d="M666 4665 c5 -11 1 -14 -12 -9 -15 5 -16 4 -4 -4 8 -6 18 -8 22 -6
11 7 10 34 -2 34 -5 0 -7 -7 -4 -15z"/>
<path d="M5603 4655 c7 -16 38 -79 68 -140 31 -60 66 -136 79 -167 13 -32 25
-56 27 -55 8 8 -40 124 -96 234 -60 118 -106 193 -78 128z"/>
<path d="M618 4633 c6 -2 18 -2 25 0 6 3 1 5 -13 5 -14 0 -19 -2 -12 -5z"/>
<path d="M671 4614 c0 -11 3 -14 6 -6 3 7 2 16 -1 19 -3 4 -6 -2 -5 -13z"/>
<path d="M705 4580 c-3 -11 -13 -20 -20 -20 -8 0 -21 -10 -29 -22 -9 -12 -16
-17 -16 -11 0 8 -7 10 -17 6 -14 -5 -14 -8 -2 -11 7 -3 17 -10 21 -16 5 -8 8
-7 8 1 0 7 6 10 13 7 7 -2 19 7 27 20 7 14 16 24 19 22 3 -2 7 7 7 20 2 29 -2
31 -11 4z m-20 -40 c-3 -5 -11 -10 -16 -10 -6 0 -7 5 -4 10 3 6 11 10 16 10 6
0 7 -4 4 -10z"/>
<path d="M2350 4591 c0 -6 4 -13 10 -16 6 -3 7 1 4 9 -7 18 -14 21 -14 7z"/>
<path d="M635 4560 c-3 -6 1 -7 9 -4 18 7 21 14 7 14 -6 0 -13 -4 -16 -10z"/>
<path d="M218 4513 c7 -3 16 -2 19 1 4 3 -2 6 -13 5 -11 0 -14 -3 -6 -6z"/>
<path d="M607 4499 c7 -7 15 -10 18 -7 3 3 -2 9 -12 12 -14 6 -15 5 -6 -5z"/>
<path d="M743 4473 c-4 -10 -11 -21 -17 -25 -5 -4 2 -10 17 -13 15 -4 24 -11
21 -16 -3 -5 2 -6 10 -3 12 5 13 9 3 19 -6 7 -16 12 -22 10 -5 -1 -7 0 -2 2 4
3 5 9 2 14 -4 5 1 6 10 3 11 -5 14 -2 9 10 -8 21 -23 20 -31 -1z"/>
<path d="M2470 4471 c0 -6 4 -13 10 -16 6 -3 7 1 4 9 -7 18 -14 21 -14 7z"/>
<path d="M7291 4464 c0 -11 3 -14 6 -6 3 7 2 16 -1 19 -3 4 -6 -2 -5 -13z"/>
<path d="M628 4453 c10 -4 10 -8 1 -19 -7 -8 -7 -14 -1 -14 12 0 23 26 15 34
-4 3 -11 6 -17 5 -6 0 -5 -3 2 -6z"/>
<path d="M2500 4438 c0 -6 16 -33 162 -265 80 -127 145 -221 106 -153 -37 65
-93 158 -110 182 -10 15 -18 29 -18 31 0 3 -31 51 -70 108 -38 56 -70 100 -70
97z"/>
<path d="M715 4421 c-3 -6 1 -14 10 -17 12 -5 13 -9 4 -20 -15 -18 -2 -18 16
0 12 12 11 16 -4 30 -13 12 -21 14 -26 7z"/>
<path d="M650 4415 c0 -6 5 -16 12 -23 7 -7 8 -12 4 -12 -5 0 -3 -7 4 -15 11
-13 14 -13 25 2 15 20 1 48 -17 37 -6 -4 -14 0 -19 7 -5 8 -9 9 -9 4z m45 -35
c-3 -5 -11 -10 -16 -10 -6 0 -7 5 -4 10 3 6 11 10 16 10 6 0 7 -4 4 -10z"/>
<path d="M610 4395 c-14 -8 -20 -14 -14 -15 5 0 19 7 30 15 24 18 16 19 -16 0z"/>
<path d="M7938 4369 c3 -19 7 -26 12 -19 10 16 6 43 -7 47 -5 2 -8 -10 -5 -28z"/>
<path d="M9813 4367 c45 -13 46 -21 7 -37 -40 -17 -38 -38 4 -31 5 1 6 -6 2
-15 -5 -14 -4 -15 9 -4 8 7 15 9 15 4 0 -5 7 2 16 15 14 19 14 25 3 33 -11 8
-10 9 3 5 9 -3 21 0 27 7 8 10 2 16 -28 24 -21 7 -51 11 -67 11 -27 -1 -27 -2
9 -12z"/>
<path d="M645 4350 c-3 -5 -1 -10 4 -10 6 0 11 5 11 10 0 6 -2 10 -4 10 -3 0
-8 -4 -11 -10z"/>
<path d="M721 4352 c-1 -8 -6 -10 -13 -6 -10 5 -10 4 -1 -6 15 -16 28 -8 20
12 -4 11 -6 11 -6 0z"/>
<path d="M9971 4343 c7 -12 15 -20 18 -17 3 2 -3 12 -13 22 -17 16 -18 16 -5
-5z"/>
<path d="M661 4323 c-12 -13 -11 -14 8 -8 13 4 21 2 21 -5 0 -6 5 -8 10 -5 6
4 5 12 -4 21 -18 17 -18 17 -35 -3z"/>
<path d="M7277 4310 c12 -13 2 -47 -20 -61 -5 -4 -5 -9 2 -13 6 -4 11 -2 11 5
0 7 10 5 28 -6 l27 -18 -20 23 -20 23 25 -8 c21 -7 23 -6 13 7 -7 8 -10 18 -6
22 4 4 -1 4 -11 0 -13 -5 -17 -4 -13 3 4 6 -1 17 -11 24 -14 11 -15 11 -5 -1z"/>
<path d="M9922 4303 c-10 -21 -16 -141 -7 -132 3 4 8 31 10 60 2 30 7 62 10
72 4 9 5 17 1 17 -3 0 -9 -8 -14 -17z"/>
<path d="M506 4261 c-4 -7 -5 -15 -2 -18 9 -9 19 4 14 18 -4 11 -6 11 -12 0z"/>
<path d="M4906 4240 c4 -14 15 -54 25 -90 9 -36 18 -56 18 -45 1 27 -24 118
-38 141 -11 17 -11 16 -5 -6z"/>
<path d="M5939 4233 c-13 -16 -12 -17 4 -4 9 7 17 15 17 17 0 8 -8 3 -21 -13z"/>
<path d="M720 4229 c0 -5 5 -7 10 -4 6 3 10 8 10 11 0 2 -4 4 -10 4 -5 0 -10
-5 -10 -11z"/>
<path d="M6560 4220 c-13 -25 -13 -51 0 -30 5 8 12 11 16 7 4 -4 0 -15 -9 -25
-21 -23 -21 -28 -2 -36 8 -3 14 0 12 6 -1 6 4 13 11 15 7 3 11 -1 10 -7 -2 -7
7 -13 20 -15 21 -2 21 -1 5 18 -17 19 -17 19 5 12 22 -6 23 -5 10 17 -7 12
-17 26 -22 29 -5 4 -6 11 -3 15 3 5 -6 10 -19 10 -15 1 -28 -6 -34 -16z"/>
<path d="M9640 4205 c-7 -9 -8 -15 -2 -15 5 0 12 7 16 15 3 8 4 15 2 15 -2 0
-9 -7 -16 -15z"/>
<path d="M9597 4203 c-4 -3 -7 -11 -7 -17 0 -6 5 -5 12 2 6 6 9 14 7 17 -3 3
-9 2 -12 -2z"/>
<path d="M9680 4200 c-8 -5 -10 -10 -5 -10 6 0 17 5 25 10 8 5 11 10 5 10 -5
0 -17 -5 -25 -10z"/>
<path d="M9557 4194 c-20 -20 -6 -42 31 -48 73 -12 83 -14 98 -27 8 -6 18 -8
22 -4 4 4 1 10 -6 12 -10 4 -10 8 -1 19 14 17 -2 19 -19 2 -10 -10 -15 -10
-21 1 -5 8 -16 11 -26 8 -10 -5 -14 -3 -9 5 5 7 -1 9 -18 5 -19 -5 -27 -2 -34
14 -5 11 -13 17 -17 13z"/>
<path d="M9726 4172 c-3 -5 1 -9 9 -9 8 0 12 4 9 9 -3 4 -7 8 -9 8 -2 0 -6 -4
-9 -8z"/>
<path d="M9513 4155 c0 -8 7 -15 15 -15 12 0 12 3 2 15 -7 8 -13 15 -15 15 -1
0 -2 -7 -2 -15z"/>
<path d="M3176 4143 c-6 -14 -5 -15 5 -6 7 7 10 15 7 18 -3 3 -9 -2 -12 -12z"/>
<path d="M5788 4143 c-16 -4 -38 -57 -38 -90 0 -18 37 -36 42 -21 3 9 13 7 34
-6 28 -19 29 -19 13 0 -32 39 -32 47 2 24 32 -22 33 -23 15 -2 -11 12 -14 22
-8 22 7 0 12 5 12 11 0 6 -7 9 -14 6 -11 -4 -13 -1 -9 10 5 12 3 14 -8 8 -11
-6 -12 -5 -1 6 18 20 15 28 -10 21 -14 -3 -19 -2 -14 6 4 7 6 11 4 11 -2 -1
-11 -3 -20 -6z m8 -61 c-7 -21 -36 -39 -36 -22 0 5 5 21 10 36 13 32 36 19 26
-14z"/>
<path d="M9470 4130 c10 -6 11 -10 3 -10 -7 0 -13 -10 -13 -22 l1 -23 19 24
c22 25 18 41 -8 41 -15 0 -15 -2 -2 -10z"/>
<path d="M3134 4063 c-49 -95 -179 -271 -192 -259 -2 3 7 20 21 38 19 25 23
37 16 48 -9 13 -10 13 -6 0 2 -8 -9 -28 -25 -43 -15 -16 -28 -33 -28 -38 0 -6
-12 -14 -28 -20 -61 -21 -61 -107 1 -129 37 -12 40 -13 32 0 -3 6 -4 10 0 10
3 0 28 -34 55 -76 28 -42 50 -72 50 -67 0 5 -13 30 -29 55 -41 64 -55 91 -43
84 6 -3 13 -2 17 4 4 6 11 7 17 4 7 -4 6 -9 -2 -14 -9 -5 -2 -19 24 -46 21
-22 33 -30 27 -18 -5 11 -17 26 -25 34 -20 16 -21 34 -1 26 13 -4 13 -2 5 14
-14 26 -14 28 20 35 38 8 38 16 -1 39 -28 17 -35 44 -10 38 7 -1 10 2 6 7 -3
6 4 20 15 31 32 32 16 37 -20 6 -33 -28 -56 -35 -43 -13 4 7 31 46 59 87 58
86 128 209 122 215 -2 3 -17 -21 -34 -52z"/>
<path d="M685 4100 c3 -5 10 -10 16 -10 5 0 9 5 9 10 0 6 -7 10 -16 10 -8 0
-12 -4 -9 -10z"/>
<path d="M2026 4073 c-6 -14 -5 -15 5 -6 7 7 10 15 7 18 -3 3 -9 -2 -12 -12z"/>
<path d="M646 4064 c-4 -10 -1 -14 6 -12 15 5 23 28 10 28 -5 0 -13 -7 -16
-16z"/>
<path d="M9931 4056 c-9 -11 -8 -15 6 -20 10 -4 14 -4 10 0 -4 4 1 13 11 20
15 12 15 13 1 14 -9 0 -22 -6 -28 -14z"/>
<path d="M9488 4049 c-18 -10 -25 -49 -9 -49 5 0 14 7 21 15 11 13 10 15 -6 9
-14 -4 -13 -1 6 15 26 21 18 28 -12 10z"/>
<path d="M9660 4043 c0 -9 40 -36 45 -31 2 2 -8 11 -21 21 -13 10 -24 14 -24
10z"/>
<path d="M4954 4029 c-6 -8 -14 -23 -17 -34 -7 -19 -6 -19 7 -2 18 23 26 21
26 -7 0 -26 -24 -51 -40 -41 -15 9 -12 -21 4 -34 11 -9 15 -9 19 1 3 9 14 4
36 -16 35 -33 41 -27 11 11 -27 34 -25 51 3 27 12 -10 19 -15 15 -10 -4 5 -3
15 3 22 12 15 -5 54 -24 54 -7 0 -6 4 3 10 12 8 11 10 -7 10 -12 0 -23 5 -25
11 -2 7 -7 7 -14 -2z"/>
<path d="M675 4020 c-3 -5 -1 -10 4 -10 6 0 11 5 11 10 0 6 -2 10 -4 10 -3 0
-8 -4 -11 -10z"/>
<path d="M4082 4000 c-12 -16 -53 -47 -91 -69 -68 -40 -82 -60 -73 -103 3 -15
37 -34 53 -30 4 0 26 -15 50 -36 42 -35 40 -25 -5 26 -27 31 -8 28 28 -5 21
-19 24 -21 12 -5 -33 39 -11 33 29 -8 22 -22 43 -40 48 -40 5 0 -17 25 -48 55
-57 56 -61 66 -15 40 32 -18 50 -19 25 -2 -11 9 -15 19 -10 27 6 10 4 12 -8 7
-11 -4 -18 1 -23 16 -4 12 -2 23 5 25 6 2 11 8 11 13 0 5 -12 2 -27 -7 -17
-10 -7 3 22 31 28 26 35 35 17 21 -51 -40 -59 -31 -13 14 22 22 41 44 41 50 0
15 -5 12 -28 -20z m-57 -80 c-3 -5 -11 -10 -16 -10 -6 0 -7 5 -4 10 3 6 11 10
16 10 6 0 7 -4 4 -10z m-35 -64 c0 -13 -7 -27 -16 -30 -8 -3 -12 -2 -9 4 3 6
-1 13 -9 16 -23 9 -19 26 4 19 11 -4 20 -2 20 4 0 6 2 11 5 11 3 0 5 -11 5
-24z"/>
<path d="M9453 3998 c4 -10 2 -20 -3 -23 -6 -4 -10 -12 -10 -20 0 -23 39 -5
61 29 20 30 20 30 1 8 l-21 -22 -17 22 c-10 15 -14 17 -11 6z"/>
<path d="M1959 3936 c-37 -74 -139 -228 -154 -233 -6 -2 -11 5 -11 16 0 11 5
19 11 18 5 -1 10 6 10 16 0 27 -19 23 -35 -9 -8 -16 -18 -31 -23 -32 -4 -2 -5
-8 -1 -13 3 -5 -3 -9 -14 -9 -26 0 -76 -47 -78 -74 -2 -30 44 -67 76 -60 17 4
21 3 12 -4 -10 -7 -6 -11 15 -15 30 -7 161 -128 229 -212 75 -93 193 -284 276
-444 21 -42 36 -65 32 -51 -8 32 -92 198 -136 271 -77 126 -253 360 -265 351
-6 -5 -83 64 -83 73 0 4 7 4 16 1 17 -6 12 6 -14 37 -20 22 -16 22 43 -8 53
-27 71 -19 39 17 -15 16 -16 20 -4 18 36 -5 100 1 100 9 0 6 -17 11 -37 13
-37 4 -37 4 -13 15 19 9 21 12 7 12 -11 1 -15 5 -11 13 5 8 -2 9 -24 5 -35 -7
-49 5 -27 23 9 8 15 8 15 2 0 -6 -5 -13 -10 -15 -6 -3 -5 -4 2 -3 7 1 14 17
15 34 l3 32 -53 -37 -52 -37 33 38 c17 20 32 46 32 56 0 11 4 20 8 20 5 0 15
18 22 40 7 21 17 37 23 33 5 -3 7 0 5 8 -3 8 0 21 7 29 13 17 56 120 50 120
-2 0 -19 -29 -36 -64z m-149 -391 c7 -9 8 -15 2 -15 -5 0 -12 7 -16 15 -3 8
-4 15 -2 15 2 0 9 -7 16 -15z"/>
<path d="M9938 3981 c12 -10 22 -23 22 -28 1 -12 40 -60 40 -49 0 5 -8 18 -17
29 -13 15 -15 21 -6 24 18 6 -5 28 -37 37 l-25 7 23 -20z"/>
<path d="M700 3975 c-10 -12 -10 -15 3 -15 19 0 31 16 18 24 -5 3 -14 -1 -21
-9z"/>
<path d="M2791 3970 c14 -31 19 -36 19 -24 0 6 -7 19 -16 30 -14 18 -14 18 -3
-6z"/>
<path d="M9800 3983 c8 -3 24 -13 35 -22 20 -16 20 -16 1 7 -11 12 -26 22 -35
21 -14 0 -14 -1 -1 -6z"/>
<path d="M9510 3960 c0 -5 5 -10 11 -10 5 0 7 5 4 10 -3 6 -8 10 -11 10 -2 0
-4 -4 -4 -10z"/>
<path d="M9572 3945 c-7 -14 -12 -33 -12 -42 0 -13 -3 -13 -15 -3 -16 13 -21
0 -6 -15 6 -6 5 -28 -3 -57 l-12 -47 -22 42 c-12 23 -32 53 -43 67 -16 19 -15
14 5 -22 32 -57 33 -67 4 -42 -24 22 -18 9 24 -50 21 -30 27 -47 23 -67 -4
-15 2 -50 13 -81 10 -29 17 -68 16 -86 -2 -18 -6 -47 -8 -64 -5 -41 -9 -190
-5 -203 1 -5 -1 -18 -6 -28 -9 -22 3 -145 16 -153 5 -3 7 -10 4 -15 -7 -10 -6
-10 42 -14 18 -1 53 -6 78 -9 29 -5 45 -4 45 3 0 6 9 11 20 11 11 0 20 -4 20
-9 0 -5 16 -4 36 2 34 10 35 12 15 21 -27 12 -27 23 2 22 20 -1 22 4 23 45 0
38 -3 46 -15 42 -13 -5 -13 -3 -4 7 6 7 9 20 6 29 -6 14 -3 13 14 -2 21 -18
21 -18 28 35 3 29 8 65 11 81 3 16 1 27 -5 27 -6 0 -11 7 -11 15 0 8 5 15 10
15 6 0 9 23 9 53 -2 48 -2 50 -9 17 -7 -35 -10 -31 -14 23 -1 17 -12 37 -26
48 -14 10 -20 19 -13 19 6 0 15 -4 18 -10 9 -15 22 -12 22 5 0 8 -9 15 -19 15
-10 0 -18 5 -18 10 0 6 10 10 23 10 12 0 34 14 50 32 18 21 27 26 23 14 -6
-16 -4 -17 9 -6 22 19 18 29 -10 24 -19 -3 -23 -1 -19 11 4 8 10 15 15 15 5 0
9 7 9 15 0 20 -10 19 -26 -2 -9 -12 -13 -14 -14 -5 0 18 25 42 45 42 9 0 14 4
11 9 -3 5 1 14 9 21 8 7 12 16 9 22 -3 5 0 16 7 25 11 13 10 17 -5 28 -17 13
-17 14 3 34 24 24 25 30 10 51 -7 11 -12 12 -15 3 -3 -7 -12 -9 -20 -6 -8 3
-14 0 -14 -6 0 -16 -21 -13 -42 6 -17 15 -18 15 -18 -15 0 -17 -6 -33 -12 -36
-7 -3 -3 -3 10 0 25 6 29 -8 7 -26 -17 -14 -21 -35 -5 -25 6 3 10 2 10 -4 0
-5 -4 -13 -10 -16 -5 -3 -10 -1 -10 4 0 6 -5 11 -11 11 -6 0 -9 -7 -5 -15 4
-12 2 -13 -14 -2 -23 14 -27 29 -5 21 18 -7 20 12 3 20 -10 5 -10 7 0 12 6 3
10 10 7 14 -3 5 -17 4 -31 -2 -22 -10 -27 -9 -35 5 -6 9 -16 17 -23 17 -16 0
-47 -65 -40 -85 4 -8 1 -15 -6 -15 -6 0 -9 -4 -6 -9 3 -5 -1 -14 -8 -20 -10
-8 -16 -9 -21 -2 -3 6 3 18 14 28 11 9 16 20 11 23 -8 5 -4 34 16 98 6 21 4
22 -20 16 -21 -5 -25 -3 -20 10 3 9 1 16 -5 16 -6 0 -11 -10 -11 -22 0 -22
-42 -53 -55 -40 -12 13 -4 34 11 28 14 -5 15 -4 4 9 -10 12 -10 19 -2 27 14
14 16 28 4 28 -5 0 -14 -11 -20 -25z m75 -97 c-3 -7 -5 -2 -5 12 0 14 2 19 5
13 2 -7 2 -19 0 -25z m93 -2 c0 -2 -8 -10 -17 -17 -16 -13 -17 -12 -4 4 13 16
21 21 21 13z m9 -40 c-18 -19 -36 -33 -38 -30 -6 6 50 64 62 64 6 0 -5 -15
-24 -34z m-122 -38 c-3 -8 -6 -5 -6 6 -1 11 2 17 5 13 3 -3 4 -12 1 -19z m203
-9 c0 -6 7 -9 15 -5 22 8 18 -2 -6 -15 -15 -8 -19 -8 -15 0 11 18 -6 12 -19
-6 -12 -16 -12 -14 -8 10 5 26 33 39 33 16z m-73 -24 c0 -8 -4 -12 -9 -9 -5 3
-6 10 -3 15 9 13 12 11 12 -6z m-127 -6 c0 8 3 12 6 8 3 -3 1 -14 -5 -24 -8
-14 -10 -14 -11 -3 0 13 -1 13 -10 0 -11 -17 -13 -9 -4 15 5 13 8 14 15 3 7
-11 9 -10 9 1z m233 -98 c3 -24 -27 -34 -78 -27 -40 6 -45 10 -34 21 17 16 59
22 77 12 24 -15 12 11 -13 27 -14 9 -25 22 -25 29 1 7 6 5 14 -5 19 -25 26
-22 26 10 1 24 2 23 16 -13 8 -22 16 -46 17 -54z m-323 69 c0 -5 -2 -10 -4
-10 -3 0 -8 5 -11 10 -3 6 -1 10 4 10 6 0 11 -4 11 -10z m221 -12 c8 -7 12
-12 10 -11 -2 1 -12 -2 -22 -7 -19 -11 -35 2 -24 20 8 13 18 13 36 -2z m-181
-95 c0 -10 -4 -14 -8 -8 -4 6 -11 13 -16 18 -5 4 -2 7 7 7 10 0 17 -8 17 -17z
m140 -22 c0 -5 10 -7 22 -3 15 4 19 2 14 -7 -5 -8 -19 -10 -39 -6 -43 9 -58
25 -24 25 15 0 27 -4 27 -9z m-8 -33 c8 -20 -2 -39 -15 -31 -8 4 -7 1 1 -9 14
-17 6 -48 -12 -48 -13 0 -15 67 -3 88 10 16 24 15 29 0z m38 -18 c0 -5 -5 -10
-11 -10 -5 0 -7 5 -4 10 3 6 8 10 11 10 2 0 4 -4 4 -10z m0 -44 c0 -11 -19
-15 -25 -6 -3 5 1 10 9 10 9 0 16 -2 16 -4z m0 -36 c0 -5 -2 -10 -4 -10 -3 0
-8 5 -11 10 -3 6 -1 10 4 10 6 0 11 -4 11 -10z m40 -9 c0 -12 -20 -25 -27 -18
-7 7 6 27 18 27 5 0 9 -4 9 -9z m-220 -11 c0 -5 -4 -10 -10 -10 -5 0 -10 5
-10 10 0 6 5 10 10 10 6 0 10 -4 10 -10z m170 0 c8 -5 12 -11 9 -14 -3 -3 -14
1 -25 9 -21 16 -8 20 16 5z m100 -24 c0 -3 -4 -8 -10 -11 -5 -3 -10 -1 -10 4
0 6 5 11 10 11 6 0 10 -2 10 -4z m-20 -86 c0 -5 -2 -10 -4 -10 -3 0 -8 5 -11
10 -3 6 -1 10 4 10 6 0 11 -4 11 -10z m-26 -75 c3 -8 1 -15 -4 -15 -6 0 -10 7
-10 15 0 8 2 15 4 15 2 0 6 -7 10 -15z"/>
<path d="M9785 3620 c3 -5 11 -10 16 -10 6 0 7 5 4 10 -3 6 -11 10 -16 10 -6
0 -7 -4 -4 -10z"/>
<path d="M9490 3934 c0 -8 5 -12 10 -9 6 4 8 11 5 16 -9 14 -15 11 -15 -7z"/>
<path d="M9756 3891 c-4 -7 -5 -15 -2 -18 9 -9 19 4 14 18 -4 11 -6 11 -12 0z"/>
<path d="M5030 3863 c0 -6 8 -17 18 -24 16 -13 16 -13 2 6 -8 11 -16 22 -17
24 -2 2 -3 0 -3 -6z"/>
<path d="M6840 3840 c6 -11 13 -20 16 -20 2 0 0 9 -6 20 -6 11 -13 20 -16 20
-2 0 0 -9 6 -20z"/>
<path d="M1846 3804 c-10 -14 -16 -28 -13 -30 2 -3 12 7 21 22 10 14 16 28 13
30 -2 3 -12 -7 -21 -22z"/>
<path d="M6000 3800 c0 -8 150 -306 150 -299 0 11 -30 81 -70 159 -37 75 -80
149 -80 140z"/>
<path d="M6876 3760 c3 -14 10 -32 15 -40 7 -13 8 -13 8 0 0 8 -6 26 -15 40
l-15 25 7 -25z"/>
<path d="M5120 3740 c6 -11 13 -20 16 -20 2 0 0 9 -6 20 -6 11 -13 20 -16 20
-2 0 0 -9 6 -20z"/>
<path d="M9460 3696 c0 -2 7 -7 16 -10 8 -3 12 -2 9 4 -6 10 -25 14 -25 6z"/>
<path d="M5179 3652 c6 -12 16 -24 22 -28 8 -4 8 -1 0 14 -6 12 -16 24 -22 28
-8 4 -8 1 0 -14z"/>
<path d="M715 3640 c3 -6 1 -10 -6 -10 -7 0 -10 -3 -6 -6 3 -3 13 -2 22 4 16
8 16 9 1 15 -10 4 -15 3 -11 -3z"/>
<path d="M675 3620 c-3 -5 -1 -10 4 -10 6 0 11 5 11 10 0 6 -2 10 -4 10 -3 0
-8 -4 -11 -10z"/>
<path d="M9930 3600 c0 -5 5 -10 10 -10 6 0 10 5 10 10 0 6 -4 10 -10 10 -5 0
-10 -4 -10 -10z"/>
<path d="M1030 3568 c30 -20 49 -23 170 -24 l135 -2 -115 8 c-63 4 -135 15
-160 24 -62 22 -71 20 -30 -6z"/>
<path d="M2028 3583 c6 -2 18 -2 25 0 6 3 1 5 -13 5 -14 0 -19 -2 -12 -5z"/>
<path d="M5246 3539 c14 -28 28 -49 31 -46 5 5 -45 97 -53 97 -2 0 7 -23 22
-51z"/>
<path d="M3060 3571 c0 -6 4 -13 10 -16 6 -3 7 1 4 9 -7 18 -14 21 -14 7z"/>
<path d="M7588 3539 c-9 -16 -13 -29 -7 -29 9 0 33 49 27 56 -2 1 -11 -11 -20
-27z"/>
<path d="M7009 3513 c-13 -16 -12 -17 4 -4 16 13 21 21 13 21 -2 0 -10 -8 -17
-17z"/>
<path d="M6959 3473 c-13 -17 -13 -17 6 -3 11 8 22 16 24 17 2 2 0 3 -6 3 -6
0 -17 -8 -24 -17z"/>
<path d="M5287 3459 c4 -13 8 -18 11 -10 2 7 -1 18 -6 23 -8 8 -9 4 -5 -13z"/>
<path d="M701 3454 c0 -11 3 -14 6 -6 3 7 2 16 -1 19 -3 4 -6 -2 -5 -13z"/>
<path d="M3070 3461 c0 -6 4 -13 10 -16 6 -3 7 1 4 9 -7 18 -14 21 -14 7z"/>
<path d="M6906 3453 c-11 -11 -6 -23 9 -23 10 0 15 -10 15 -31 0 -25 3 -29 14
-20 17 14 9 59 -14 71 -10 5 -20 6 -24 3z"/>
<path d="M4275 3426 c10 -14 19 -26 22 -26 7 0 -17 39 -28 46 -6 3 -3 -5 6
-20z"/>
<path d="M667 3426 c-3 -8 -2 -18 3 -21 13 -8 20 9 11 24 -6 10 -10 9 -14 -3z"/>
<path d="M6172 3400 c0 -14 2 -19 5 -12 2 6 2 18 0 25 -3 6 -5 1 -5 -13z"/>
<path d="M3131 3368 c50 -93 239 -382 239 -365 0 7 -28 53 -145 232 -28 44
-62 97 -74 118 -24 40 -39 51 -20 15z"/>
<path d="M4315 3360 c9 -16 18 -30 21 -30 2 0 -2 14 -11 30 -9 17 -18 30 -21
30 -2 0 2 -13 11 -30z"/>
<path d="M6260 3374 c0 -14 -68 -57 -79 -50 -5 4 -15 -2 -20 -13 -16 -29 -13
-38 4 -15 13 16 16 17 25 4 5 -8 10 -20 10 -27 0 -18 -30 -44 -42 -37 -7 4 -8
2 -4 -4 3 -6 16 -9 29 -6 12 3 29 6 37 8 8 2 15 11 15 22 0 10 5 22 10 26 6 5
5 8 -4 8 -7 0 -11 6 -8 14 4 11 1 13 -11 10 -9 -3 -2 8 17 25 19 17 32 34 28
37 -4 4 -7 3 -7 -2z"/>
<path d="M131 3332 c-7 -2 -22 -13 -32 -23 -10 -10 -25 -16 -34 -13 -8 4 -15
1 -15 -6 0 -8 8 -10 23 -6 12 3 34 6 48 6 27 0 42 19 31 37 -4 5 -13 8 -21 5z"/>
<path d="M5539 3303 c-13 -16 -12 -17 4 -4 9 7 17 15 17 17 0 8 -8 3 -21 -13z"/>
<path d="M4350 3308 c0 -3 14 -32 30 -65 17 -32 28 -47 24 -33 -6 25 -54 111
-54 98z"/>
<path d="M5467 3225 c-51 -48 -89 -72 -73 -46 4 5 -3 7 -14 4 -22 -6 -44 -70
-34 -96 3 -9 18 -24 32 -33 24 -16 26 -16 13 -1 -12 16 -9 21 12 18 8 -1 30
45 32 71 1 10 -2 15 -6 12 -5 -3 -9 -1 -9 5 0 5 26 34 58 65 31 31 55 56 52
55 -3 0 -31 -24 -63 -54z m-80 -81 c-3 -3 -12 -4 -19 -1 -8 3 -5 6 6 6 11 1
17 -2 13 -5z"/>
<path d="M721 3224 c0 -11 3 -14 6 -6 3 7 2 16 -1 19 -3 4 -6 -2 -5 -13z"/>
<path d="M2727 3145 c-26 -52 -45 -95 -42 -95 7 0 97 181 93 186 -2 2 -25 -39
-51 -91z"/>
<path d="M4699 3173 c-13 -16 -12 -17 4 -4 16 13 21 21 13 21 -2 0 -10 -8 -17
-17z"/>
<path d="M253 3173 c-15 -5 -18 -33 -4 -33 5 0 11 9 14 20 3 11 4 20 4 19 -1
0 -8 -3 -14 -6z"/>
<path d="M4421 3150 c15 -45 24 -54 15 -15 -4 17 -12 34 -17 40 -5 5 -4 -6 2
-25z"/>
<path d="M4621 3089 c-35 -32 -67 -57 -70 -53 -3 3 5 14 18 25 13 11 22 22 19
24 -2 3 -13 -3 -24 -13 -34 -32 -74 -55 -74 -43 0 6 5 11 10 11 6 0 10 6 10
13 -1 15 -77 -71 -86 -96 -12 -35 11 -45 68 -31 29 8 64 15 78 15 24 2 24 2 2
6 -16 3 -22 9 -18 20 3 8 6 17 6 20 0 3 7 0 14 -7 10 -8 21 -8 32 -2 15 8 12
11 -14 17 -18 3 -32 10 -32 14 0 5 21 28 48 52 47 44 89 89 81 89 -2 -1 -33
-28 -68 -61z m-123 -121 c-2 -12 -10 -24 -18 -26 -12 -4 -13 -2 -3 10 10 11
10 17 1 26 -9 9 -8 12 6 12 12 0 16 -6 14 -22z"/>
<path d="M3705 3062 c-32 -63 -88 -140 -157 -217 -5 -5 -13 -4 -20 4 -7 8 -8
11 -2 8 6 -3 11 0 11 8 0 13 -2 13 -16 1 -16 -14 -20 -16 -41 -16 -5 0 -10 -6
-10 -13 0 -7 -9 -20 -20 -30 -25 -21 -26 -68 -2 -90 15 -13 25 -15 53 -7 18 6
50 11 69 11 l35 2 -35 7 -35 7 45 21 c25 12 43 22 40 23 -3 0 -13 2 -23 4 -11
2 -22 7 -25 11 -4 4 1 4 12 0 14 -5 17 -3 12 10 -4 10 5 27 24 46 17 16 30 34
30 41 0 8 -28 -11 -60 -43 -35 -35 -35 -23 1 20 59 71 168 255 157 265 -2 2
-21 -31 -43 -73z m-185 -284 c0 -11 -28 -10 -35 1 -3 6 4 9 15 8 11 -1 20 -5
20 -9z m-6 -33 c-4 -8 -9 -15 -13 -15 -4 0 -8 7 -8 15 0 8 6 15 13 15 8 0 11
-6 8 -15z"/>
<path d="M195 3120 c3 -5 8 -10 11 -10 2 0 4 5 4 10 0 6 -5 10 -11 10 -5 0 -7
-4 -4 -10z"/>
<path d="M155 3109 c-4 -6 -4 -13 -1 -16 3 -4 6 -1 6 6 0 7 5 9 12 5 7 -4 8
-3 4 4 -9 15 -13 15 -21 1z"/>
<path d="M508 3103 c6 -2 18 -2 25 0 6 3 1 5 -13 5 -14 0 -19 -2 -12 -5z"/>
<path d="M674 3093 c-12 -2 -24 -13 -27 -24 -7 -26 6 -24 40 6 28 24 27 26
-13 18z"/>
<path d="M9528 3048 c5 -5 16 -8 23 -6 8 3 3 7 -10 11 -17 4 -21 3 -13 -5z"/>
<path d="M4580 3020 c-13 -8 -13 -10 2 -10 9 0 20 5 23 10 8 13 -5 13 -25 0z"/>
<path d="M9613 3023 c9 -2 25 -2 35 0 9 3 1 5 -18 5 -19 0 -27 -2 -17 -5z"/>
<path d="M121 2977 c-29 -35 -30 -38 -7 -17 24 22 52 60 44 60 -2 0 -18 -19
-37 -43z"/>
<path d="M560 2980 c0 -16 7 -20 30 -20 23 0 30 4 30 20 0 16 -7 20 -30 20
-23 0 -30 -4 -30 -20z"/>
<path d="M146 2963 c-6 -14 -5 -15 5 -6 7 7 10 15 7 18 -3 3 -9 -2 -12 -12z"/>
<path d="M2605 2922 c-43 -70 -84 -121 -154 -198 -42 -45 -58 -58 -45 -36 10
18 31 46 46 62 24 26 25 30 8 30 -10 0 -22 -9 -25 -20 -3 -11 -11 -20 -17 -20
-6 0 -6 6 2 15 9 10 9 15 1 15 -6 0 -12 -6 -12 -12 -1 -7 -2 -20 -3 -28 0 -8
-9 -14 -19 -12 -10 2 -21 -7 -29 -23 -6 -14 -16 -25 -23 -25 -18 0 -55 -44
-55 -66 0 -36 28 -64 66 -64 21 0 37 -6 40 -14 5 -12 9 -12 26 2 11 9 24 27
29 40 5 12 16 22 25 22 12 0 15 7 12 25 -4 20 1 30 26 47 17 12 35 28 39 35 4
7 14 13 21 13 13 0 31 29 23 36 -1 2 -31 -19 -67 -46 -35 -28 -68 -50 -73 -50
-5 0 2 9 17 21 14 11 26 27 26 36 0 9 6 13 14 10 9 -4 19 5 26 24 7 16 15 27
18 25 7 -8 32 21 32 37 0 8 9 22 20 32 11 10 20 23 20 29 0 13 -49 -44 -51
-59 -1 -11 -109 -112 -109 -102 0 3 16 25 37 49 41 48 146 208 141 213 -2 2
-17 -17 -33 -43z m-241 -338 c3 -9 6 -17 6 -18 0 -1 -9 -2 -20 -2 -11 0 -20 1
-20 2 0 11 14 34 20 34 4 0 11 -7 14 -16z"/>
<path d="M42 2929 c-44 -23 -50 -29 -25 -29 21 0 73 35 63 42 -3 2 -20 -4 -38
-13z"/>
<path d="M3405 2934 c4 -10 16 -41 26 -69 10 -27 18 -43 19 -34 0 24 -31 108
-43 116 -7 4 -8 0 -2 -13z"/>
<path d="M170 2930 c-11 -8 -7 -9 15 -4 37 8 45 14 19 14 -10 0 -26 -5 -34
-10z"/>
<path d="M225 2920 c-3 -5 -19 -10 -36 -10 -16 0 -29 -4 -29 -10 0 -13 10 -13
49 1 17 6 31 15 31 20 0 12 -7 11 -15 -1z"/>
<path d="M190 2880 c-35 -7 -35 -7 -5 -9 17 0 37 4 45 9 17 11 11 11 -40 0z"/>
<path d="M2520 2849 c0 -5 -4 -8 -9 -4 -5 3 -12 1 -15 -4 -4 -5 2 -8 11 -7 15
3 33 26 19 26 -3 0 -6 -5 -6 -11z"/>
<path d="M1026 2817 c3 -10 9 -15 12 -12 3 3 0 11 -7 18 -10 9 -11 8 -5 -6z"/>
<path d="M2486 2808 c3 -5 10 -6 15 -3 13 9 11 12 -6 12 -8 0 -12 -4 -9 -9z"/>
<path d="M9365 2810 c11 -5 27 -9 35 -9 9 0 8 4 -5 9 -11 5 -27 9 -35 9 -9 0
-8 -4 5 -9z"/>
<path d="M2310 2791 c0 -6 4 -13 10 -16 6 -3 7 1 4 9 -7 18 -14 21 -14 7z"/>
<path d="M2614 2776 c-10 -8 -17 -16 -14 -19 3 -2 14 4 24 14 23 22 18 25 -10
5z"/>
<path d="M9498 2773 c7 -3 16 -2 19 1 4 3 -2 6 -13 5 -11 0 -14 -3 -6 -6z"/>
<path d="M1105 2730 c3 -5 8 -10 11 -10 2 0 4 5 4 10 0 6 -5 10 -11 10 -5 0
-7 -4 -4 -10z"/>
<path d="M9930 2730 c-24 -8 -24 -8 7 -9 17 -1 38 -4 47 -7 11 -4 16 -1 16 10
0 17 -27 20 -70 6z"/>
<path d="M9850 2664 c-63 -19 -119 -39 -124 -44 -15 -15 -21 -140 -7 -140 7 0
12 24 12 63 1 55 3 58 10 27 7 -34 7 -34 6 9 l-2 45 128 30 c70 17 127 34 127
38 0 14 -31 8 -150 -28z"/>
<path d="M1090 2640 c0 -11 4 -20 9 -20 5 0 7 9 4 20 -3 11 -7 20 -9 20 -2 0
-4 -9 -4 -20z"/>
<path d="M9610 2635 c0 -18 1 -18 36 0 l29 15 -32 0 c-23 0 -33 -5 -33 -15z"/>
<path d="M2498 2613 c7 -3 16 -2 19 1 4 3 -2 6 -13 5 -11 0 -14 -3 -6 -6z"/>
<path d="M1031 2600 c-1 -24 10 -60 20 -60 5 0 9 7 9 15 0 8 -4 15 -9 15 -5 0
-12 10 -14 23 -2 12 -5 15 -6 7z"/>
<path d="M1123 2524 c-6 -16 11 -34 33 -34 7 0 14 11 16 25 4 21 1 25 -19 25
-13 0 -26 -7 -30 -16z"/>
<path d="M2400 2490 c0 -5 5 -10 11 -10 5 0 7 5 4 10 -3 6 -8 10 -11 10 -2 0
-4 -4 -4 -10z"/>
<path d="M8 2364 c-6 -38 -3 -64 8 -64 12 0 40 39 32 44 -2 1 -11 8 -20 15
-10 7 -19 10 -20 5z m27 -24 c3 -5 2 -10 -4 -10 -5 0 -13 5 -16 10 -3 6 -2 10
4 10 5 0 13 -4 16 -10z"/>
<path d="M8593 2293 c9 -2 23 -2 30 0 6 3 -1 5 -18 5 -16 0 -22 -2 -12 -5z"/>
<path d="M0 2260 c0 -16 5 -21 23 -18 12 2 22 10 22 18 0 8 -10 16 -22 18 -18
3 -23 -2 -23 -18z"/>
<path d="M8498 2273 c-10 -2 -18 -8 -18 -13 0 -8 13 -5 70 13 19 7 -29 6 -52
0z"/>
<path d="M2138 2237 c-29 -11 -35 -26 -18 -43 17 -17 48 -124 42 -146 -3 -13
-1 -19 5 -15 16 10 33 -16 39 -59 15 -120 16 -155 5 -168 -9 -11 -9 -15 1 -19
7 -3 3 -6 -8 -6 -12 -1 -32 -9 -45 -20 -13 -10 -41 -24 -61 -30 -21 -7 -41
-17 -44 -23 -8 -12 -8 -12 106 28 41 14 127 41 190 59 l115 33 17 -21 c27 -34
21 -4 -7 34 -13 19 -37 56 -52 83 -16 28 -51 75 -78 105 -61 69 -85 102 -119
169 -28 55 -38 59 -88 39z m52 -477 c-8 -5 -19 -10 -25 -10 -5 0 -3 5 5 10 8
5 20 10 25 10 6 0 3 -5 -5 -10z"/>
<path d="M240 2196 c0 -9 7 -12 20 -9 28 7 25 -13 -2 -22 -22 -7 -22 -7 -3
-12 10 -3 21 0 23 6 5 15 32 14 32 -1 0 -6 3 -8 7 -4 9 9 -42 56 -62 56 -8 0
-15 -6 -15 -14z"/>
<path d="M400 1970 c0 -5 5 -10 10 -10 6 0 10 5 10 10 0 6 -4 10 -10 10 -5 0
-10 -4 -10 -10z"/>
<path d="M338 1933 c12 -2 32 -2 45 0 12 2 2 4 -23 4 -25 0 -35 -2 -22 -4z"/>
<path d="M1196 1925 c-3 -8 -2 -25 3 -37 7 -19 9 -17 8 15 -1 41 -2 44 -11 22z"/>
<path d="M320 1880 c0 -13 30 -13 50 0 11 7 7 10 -17 10 -18 0 -33 -4 -33 -10z"/>
<path d="M1995 1690 c-13 -5 -14 -9 -5 -9 8 0 24 4 35 9 13 5 14 9 5 9 -8 0
-24 -4 -35 -9z"/>
<path d="M1936 1661 c-4 -5 3 -7 14 -4 23 6 26 13 6 13 -8 0 -17 -4 -20 -9z"/>
<path d="M6380 1621 c-30 -9 -59 -19 -65 -22 -5 -4 -53 -18 -105 -33 -52 -14
-117 -33 -145 -41 -73 -21 -253 -63 -302 -70 -23 -4 -48 -14 -55 -22 -11 -14
-10 -16 12 -10 14 3 100 21 193 40 92 19 173 39 180 44 17 14 193 63 250 70
26 3 47 10 47 15 0 5 25 7 55 4 59 -5 60 -4 45 25 -13 22 -35 23 -110 0z"/>
<path d="M289 1588 c-12 -5 -20 -10 -18 -13 8 -7 89 7 89 16 0 10 -40 8 -71
-3z"/>
<path d="M172 1545 c-17 -20 5 -20 24 0 12 11 12 15 2 15 -7 -1 -19 -7 -26
-15z"/>
<path d="M210 1534 l-25 -24 58 0 c36 0 57 4 57 11 0 8 -14 10 -42 6 l-43 -6
24 20 c13 11 17 19 10 18 -8 0 -25 -11 -39 -25z"/>
<path d="M5535 1410 c-11 -4 -30 -6 -43 -3 -15 4 -34 -2 -51 -15 -19 -13 -32
-17 -43 -11 -22 12 -117 -22 -198 -71 -39 -23 -139 -64 -245 -101 -165 -55
-222 -78 -203 -79 19 0 371 122 438 152 41 19 102 40 135 47 33 7 83 21 110
31 52 18 154 39 196 41 22 0 23 1 4 9 -25 11 -74 11 -100 0z"/>
<path d="M1367 1383 c-10 -9 -9 -23 2 -23 5 0 11 7 15 15 5 15 -5 20 -17 8z"/>
<path d="M6660 1261 c0 -5 5 -13 10 -16 6 -3 10 -2 10 4 0 5 -4 13 -10 16 -5
3 -10 2 -10 -4z"/>
<path d="M4630 1100 c-11 -8 -7 -9 15 -4 37 8 45 14 19 14 -10 0 -26 -5 -34
-10z"/>
<path d="M4098 963 c7 -3 16 -2 19 1 4 3 -2 6 -13 5 -11 0 -14 -3 -6 -6z"/>
<path d="M4425 655 c-27 -7 -95 -25 -150 -39 -55 -14 -112 -26 -127 -26 -15 0
-30 -4 -33 -10 -9 -14 73 -2 185 27 52 14 110 29 129 33 18 5 38 13 44 19 6 6
9 11 7 10 -3 -1 -27 -7 -55 -14z"/>
<path d="M1211 489 c-1 -52 -4 -60 -35 -87 -19 -17 -48 -33 -65 -37 -16 -3
-34 -12 -39 -18 -12 -15 -38 -121 -57 -230 -23 -130 -40 -117 155 -117 165 0
170 1 170 21 0 33 -49 222 -65 251 -8 14 -15 34 -15 45 0 10 -7 26 -14 36 -8
10 -11 28 -8 40 5 20 4 21 -13 7 -17 -14 -18 -14 -7 6 8 15 9 40 3 80 l-9 59
-1 -56z"/>
<path d="M833 273 c9 -2 25 -2 35 0 9 3 1 5 -18 5 -19 0 -27 -2 -17 -5z"/>
<path d="M683 243 c9 -2 23 -2 30 0 6 3 -1 5 -18 5 -16 0 -22 -2 -12 -5z"/>
<path d="M585 223 l-50 -13 48 4 c26 2 51 6 54 10 12 12 -3 12 -52 -1z"/>
<path d="M455 196 c-64 -13 -197 -51 -230 -66 -11 -4 -66 -22 -122 -40 -69
-21 -103 -36 -103 -45 0 -19 16 -19 23 -1 3 9 15 12 31 9 17 -4 26 -1 26 7 0
7 7 10 15 6 8 -3 15 -1 15 4 0 6 11 10 24 10 14 0 28 5 31 10 3 5 15 10 26 10
11 0 37 9 58 20 39 20 65 27 136 37 22 3 45 9 50 13 6 5 27 11 48 15 20 4 37
11 37 16 0 5 -1 9 -2 8 -2 -1 -30 -7 -63 -13z"/>
<path d="M708 88 c4 -77 7 -98 15 -87 6 8 -5 169 -12 169 -3 0 -5 -37 -3 -82z"/>
<path d="M268 43 c7 -3 16 -2 19 1 4 3 -2 6 -13 5 -11 0 -14 -3 -6 -6z"/>
<path d="M141 19 c-18 -6 -31 -12 -28 -15 3 -3 27 1 53 10 53 16 30 20 -25 5z"/>
</g>
</svg>
