<?xml version="1.0" standalone="no"?>
<!DOCTYPE svg PUBLIC "-//W3C//DTD SVG 20010904//EN"
 "http://www.w3.org/TR/2001/REC-SVG-20010904/DTD/svg10.dtd">
<svg version="1.0" xmlns="http://www.w3.org/2000/svg"
 width="535.000000pt" height="173.000000pt" viewBox="0 0 535.000000 173.000000"
 preserveAspectRatio="xMidYMid meet">

<g transform="translate(0.000000,173.000000) scale(0.100000,-0.100000)"
fill="#000000" stroke="none">
<path d="M10 1635 l0 -85 2665 0 2665 0 0 85 0 85 -2665 0 -2665 0 0 -85z"/>
<path d="M1390 916 l0 -236 163 0 c89 0 179 5 199 10 56 16 88 60 88 122 0 44
-4 54 -35 85 l-35 35 25 30 c18 21 25 41 25 69 0 97 -34 112 -257 117 l-173 4
0 -236z m327 132 c23 -30 23 -49 -2 -74 -24 -24 -29 -25 -132 -22 l-108 3 -3
53 -3 52 119 0 c84 0 122 -4 129 -12z m24 -187 c21 -25 18 -54 -7 -81 -12 -12
-41 -15 -137 -15 l-122 0 -3 49 c-5 80 -8 79 129 75 113 -4 122 -6 140 -28z"/>
<path d="M1940 915 l0 -235 200 0 200 0 0 40 0 39 -157 3 -158 3 -3 58 -3 57
151 0 150 0 0 40 0 40 -151 0 -150 0 3 51 3 51 155 1 155 2 0 40 0 40 -197 3
-198 2 0 -235z"/>
<path d="M2430 915 l0 -235 205 0 205 0 0 40 0 40 -160 0 -160 0 0 195 0 195
-45 0 -45 0 0 -235z"/>
<path d="M2920 915 l0 -235 200 0 200 0 0 40 0 39 -157 3 -158 3 -3 193 -2
192 -40 0 -40 0 0 -235z"/>
<path d="M3612 1138 c-5 -7 -60 -113 -121 -235 l-111 -223 48 0 48 0 29 60 29
60 133 0 133 0 30 -60 c30 -60 30 -60 75 -60 25 0 45 2 45 5 0 3 -52 109 -115
235 l-115 230 -49 0 c-27 0 -53 -6 -59 -12z m106 -163 c23 -47 42 -90 42 -95
0 -11 -172 -14 -183 -4 -7 8 80 184 91 184 4 0 27 -38 50 -85z"/>
<path d="M2023 242 l-53 -3 0 -97 c0 -143 0 -142 75 -142 93 0 154 49 155 123
0 82 -64 126 -177 119z m101 -63 c20 -16 26 -29 26 -59 0 -49 -35 -80 -91 -80
l-39 0 0 80 0 80 39 0 c24 0 48 -8 65 -21z"/>
<path d="M2906 239 c-40 -11 -85 -57 -92 -94 -8 -44 18 -100 58 -125 26 -17
45 -20 87 -17 71 5 111 45 111 110 0 53 -39 114 -78 122 -52 11 -57 12 -86 4z
m92 -59 c33 -31 30 -92 -4 -119 -37 -29 -70 -26 -105 8 -34 35 -37 68 -8 105
26 33 84 36 117 6z"/>
<path d="M3152 129 c3 -119 4 -124 25 -127 18 -3 22 2 25 30 2 27 8 34 30 36
22 3 32 -4 50 -32 15 -23 31 -36 46 -36 26 0 28 12 5 51 -15 25 -15 30 -1 46
34 39 28 106 -12 131 -11 7 -54 15 -95 19 l-76 6 3 -124z m142 55 c9 -8 16
-22 16 -29 0 -22 -45 -47 -77 -43 -25 3 -28 7 -31 46 l-3 42 40 0 c23 0 46 -7
55 -16z"/>
<path d="M2280 120 l0 -120 90 0 c83 0 90 1 90 20 0 18 -7 20 -65 20 l-65 0 0
30 c0 28 1 29 58 32 43 2 57 7 57 18 0 11 -14 16 -57 18 -57 3 -58 4 -58 32
l0 30 65 0 c58 0 65 2 65 20 0 19 -7 20 -90 20 l-90 0 0 -120z"/>
<path d="M2588 224 c-35 -18 -58 -62 -58 -109 0 -26 9 -45 34 -73 33 -35 38
-37 95 -37 69 0 105 21 82 49 -12 14 -16 14 -34 1 -78 -55 -175 66 -101 124
32 25 66 27 100 4 22 -14 27 -14 35 -2 14 23 10 35 -16 47 -35 16 -104 14
-137 -4z"/>
<path d="M10 105 l0 -85 690 0 690 0 0 85 0 85 -690 0 -690 0 0 -85z"/>
<path d="M3960 105 l0 -85 690 0 690 0 0 85 0 85 -690 0 -690 0 0 -85z"/>
</g>
</svg>
