<?xml version="1.0" encoding="UTF-8"?>
<!DOCTYPE svg PUBLIC "-//W3C//DTD SVG 1.1//EN" "http://www.w3.org/Graphics/SVG/1.1/DTD/svg11.dtd">
<svg xmlns="http://www.w3.org/2000/svg" version="1.1" width="535px" height="173px" style="shape-rendering:geometricPrecision; text-rendering:geometricPrecision; image-rendering:optimizeQuality; fill-rule:evenodd; clip-rule:evenodd" xmlns:xlink="http://www.w3.org/1999/xlink">
<g><path style="opacity:0.506" fill="#ededed" d="M -0.5,0.5 C -0.5,0.166667 -0.5,-0.166667 -0.5,-0.5C 177.833,-0.5 356.167,-0.5 534.5,-0.5C 534.5,5.83333 534.5,12.1667 534.5,18.5C 534.167,18.5 533.833,18.5 533.5,18.5C 533.5,18.1667 533.5,17.8333 533.5,17.5C 533.5,11.8333 533.5,6.16667 533.5,0.5C 355.833,0.5 178.167,0.5 0.5,0.5C 0.166667,0.5 -0.166667,0.5 -0.5,0.5 Z"/></g>
<g><path style="opacity:1" fill="#fefffe" d="M 0.5,0.5 C 178.167,0.5 355.833,0.5 533.5,0.5C 533.5,6.16667 533.5,11.8333 533.5,17.5C 355.833,17.5 178.167,17.5 0.5,17.5C 0.5,11.8333 0.5,6.16667 0.5,0.5 Z"/></g>
<g><path style="opacity:0.573" fill="#e8e8e8" d="M -0.5,0.5 C -0.166667,0.5 0.166667,0.5 0.5,0.5C 0.5,6.16667 0.5,11.8333 0.5,17.5C 178.167,17.5 355.833,17.5 533.5,17.5C 533.5,17.8333 533.5,18.1667 533.5,18.5C 355.5,18.5 177.5,18.5 -0.5,18.5C -0.5,12.5 -0.5,6.5 -0.5,0.5 Z"/></g>
<g><path style="opacity:0.809" fill="#dddddd" d="M 172.5,57.5 C 161.346,58.4948 150.012,58.8281 138.5,58.5C 138.83,74.0091 138.496,89.3424 137.5,104.5C 137.5,88.8333 137.5,73.1667 137.5,57.5C 149.167,57.5 160.833,57.5 172.5,57.5 Z"/></g>
<g><path style="opacity:0.994" fill="#fcfcfc" d="M 172.5,57.5 C 181.02,59.528 184.187,64.8613 182,73.5C 181.464,75.8689 180.297,77.8689 178.5,79.5C 180.858,81.0243 182.691,83.0243 184,85.5C 187.123,96.881 182.957,103.381 171.5,105C 159.992,105.826 148.659,105.659 137.5,104.5C 138.496,89.3424 138.83,74.0091 138.5,58.5C 150.012,58.8281 161.346,58.4948 172.5,57.5 Z M 147.5,66.5 C 153.842,66.3338 160.175,66.5005 166.5,67C 168.887,67.5637 170.887,68.7304 172.5,70.5C 172.262,73.1483 170.928,74.9817 168.5,76C 161.508,76.4996 154.508,76.6663 147.5,76.5C 147.5,73.1667 147.5,69.8333 147.5,66.5 Z M 147.5,84.5 C 155.585,84.0989 163.585,84.5989 171.5,86C 172.687,87.0195 173.687,88.1861 174.5,89.5C 173.503,92.155 171.836,94.155 169.5,95.5C 162.167,95.5 154.833,95.5 147.5,95.5C 147.5,91.8333 147.5,88.1667 147.5,84.5 Z"/></g>
<g><path style="opacity:1" fill="#fdfdfd" d="M 233.5,58.5 C 233.5,61.1667 233.5,63.8333 233.5,66.5C 223.167,66.5 212.833,66.5 202.5,66.5C 202.5,69.8333 202.5,73.1667 202.5,76.5C 212.167,76.5 221.833,76.5 231.5,76.5C 231.5,78.8333 231.5,81.1667 231.5,83.5C 221.916,84.4732 212.25,84.8065 202.5,84.5C 201.517,88.2984 201.183,92.2984 201.5,96.5C 212.167,96.5 222.833,96.5 233.5,96.5C 234.817,99.2301 234.817,102.063 233.5,105C 219.994,105.827 206.66,105.66 193.5,104.5C 193.5,89.1667 193.5,73.8333 193.5,58.5C 206.833,58.5 220.167,58.5 233.5,58.5 Z"/></g>
<g><path style="opacity:1" fill="#fefefe" d="M 242.5,57.5 C 245.287,58.4767 248.287,58.81 251.5,58.5C 251.5,71.1667 251.5,83.8333 251.5,96.5C 261.833,96.5 272.167,96.5 282.5,96.5C 282.5,99.1667 282.5,101.833 282.5,104.5C 268.99,104.171 255.656,104.504 242.5,105.5C 241.167,89.5 241.167,73.5 242.5,57.5 Z"/></g>
<g><path style="opacity:1" fill="#fefffe" d="M 331.5,96.5 C 331.5,99.1667 331.5,101.833 331.5,104.5C 318.167,104.5 304.833,104.5 291.5,104.5C 291.5,89.1667 291.5,73.8333 291.5,58.5C 294.167,58.5 296.833,58.5 299.5,58.5C 299.5,71.1667 299.5,83.8333 299.5,96.5C 310.167,96.5 320.833,96.5 331.5,96.5 Z"/></g>
<g><path style="opacity:0.989" fill="#fdfdfd" d="M 383.5,80.5 C 388.261,87.6864 392.261,95.3531 395.5,103.5C 392.17,104.666 388.837,104.666 385.5,103.5C 383.833,100.167 382.167,96.8333 380.5,93.5C 371.184,92.3346 361.851,92.1679 352.5,93C 350.5,96.6667 348.5,100.333 346.5,104C 343.305,104.181 340.305,104.681 337.5,105.5C 336.427,104.749 336.26,103.749 337,102.5C 340.861,95.438 344.695,88.438 348.5,81.5C 352.98,74.5488 356.98,67.2155 360.5,59.5C 364.38,58.2052 368.214,58.2052 372,59.5C 375.354,66.8827 379.187,73.8827 383.5,80.5 Z M 366.5,68.5 C 369.026,73.7183 371.693,78.885 374.5,84C 369.177,84.4994 363.844,84.666 358.5,84.5C 360.659,78.8489 363.326,73.5156 366.5,68.5 Z"/></g>
<g><path style="opacity:0.879" fill="#dcdcdc" d="M 233.5,58.5 C 220.167,58.5 206.833,58.5 193.5,58.5C 193.5,73.8333 193.5,89.1667 193.5,104.5C 192.504,89.0089 192.17,73.3422 192.5,57.5C 206.344,57.171 220.01,57.5043 233.5,58.5 Z"/></g>
<g><path style="opacity:0.408" fill="#e9e9e9" d="M 358.5,84.5 C 363.844,84.666 369.177,84.4994 374.5,84C 371.693,78.885 369.026,73.7183 366.5,68.5C 366.369,67.7611 366.536,67.0944 367,66.5C 370.4,72.6294 373.234,78.9627 375.5,85.5C 368.118,85.7309 362.451,85.3975 358.5,84.5 Z"/></g>
<g><path style="opacity:0.988" fill="#eeeeee" d="M 383.5,80.5 C 379.187,73.8827 375.354,66.8827 372,59.5C 368.214,58.2052 364.38,58.2052 360.5,59.5C 356.98,67.2155 352.98,74.5488 348.5,81.5C 351.883,73.7336 355.549,66.0669 359.5,58.5C 364.05,57.1999 368.55,57.1999 373,58.5C 376.784,65.7337 380.284,73.067 383.5,80.5 Z"/></g>
<g><path style="opacity:0.667" fill="#e1e1e1" d="M 147.5,66.5 C 147.5,69.8333 147.5,73.1667 147.5,76.5C 154.508,76.6663 161.508,76.4996 168.5,76C 170.928,74.9817 172.262,73.1483 172.5,70.5C 173.647,73.3908 172.647,75.5575 169.5,77C 161.841,77.4997 154.174,77.6664 146.5,77.5C 146.185,73.6286 146.518,69.9619 147.5,66.5 Z"/></g>
<g><path style="opacity:0.287" fill="#ebebeb" d="M 231.5,83.5 C 222.225,85.4733 212.558,86.14 202.5,85.5C 202.5,85.1667 202.5,84.8333 202.5,84.5C 212.25,84.8065 221.916,84.4732 231.5,83.5 Z"/></g>
<g><path style="opacity:0.631" fill="#eaeaea" d="M 395.5,103.5 C 394.129,104.787 392.295,105.453 390,105.5C 388.167,105.167 386.333,104.833 384.5,104.5C 382.833,101.167 381.167,97.8333 379.5,94.5C 370.853,93.3348 362.186,93.1681 353.5,94C 351.5,97.6667 349.5,101.333 347.5,105C 344.183,105.498 340.85,105.665 337.5,105.5C 340.305,104.681 343.305,104.181 346.5,104C 348.5,100.333 350.5,96.6667 352.5,93C 361.851,92.1679 371.184,92.3346 380.5,93.5C 382.167,96.8333 383.833,100.167 385.5,103.5C 388.837,104.666 392.17,104.666 395.5,103.5 Z"/></g>
<g><path style="opacity:0.74" fill="#dcdcdc" d="M 147.5,84.5 C 147.5,88.1667 147.5,91.8333 147.5,95.5C 154.833,95.5 162.167,95.5 169.5,95.5C 162.589,96.4992 154.922,96.8325 146.5,96.5C 146.183,92.2984 146.517,88.2984 147.5,84.5 Z"/></g>
<g><path style="opacity:0.645" fill="#dadada" d="M 202.5,84.5 C 202.5,84.8333 202.5,85.1667 202.5,85.5C 202.5,88.8333 202.5,92.1667 202.5,95.5C 213.014,95.1724 223.347,95.5058 233.5,96.5C 222.833,96.5 212.167,96.5 201.5,96.5C 201.183,92.2984 201.517,88.2984 202.5,84.5 Z"/></g>
<g><path style="opacity:0.785" fill="#e6e6e6" d="M 242.5,57.5 C 245.833,57.5 249.167,57.5 252.5,57.5C 252.5,70.1667 252.5,82.8333 252.5,95.5C 262.833,95.5 273.167,95.5 283.5,95.5C 283.5,98.8333 283.5,102.167 283.5,105.5C 269.833,105.5 256.167,105.5 242.5,105.5C 255.656,104.504 268.99,104.171 282.5,104.5C 282.5,101.833 282.5,99.1667 282.5,96.5C 272.167,96.5 261.833,96.5 251.5,96.5C 251.5,83.8333 251.5,71.1667 251.5,58.5C 248.287,58.81 245.287,58.4767 242.5,57.5 Z"/></g>
<g><path style="opacity:0.738" fill="#dbdbdb" d="M 331.5,95.5 C 331.5,95.8333 331.5,96.1667 331.5,96.5C 320.833,96.5 310.167,96.5 299.5,96.5C 299.5,83.8333 299.5,71.1667 299.5,58.5C 296.833,58.5 294.167,58.5 291.5,58.5C 291.5,73.8333 291.5,89.1667 291.5,104.5C 291.167,104.5 290.833,104.5 290.5,104.5C 290.5,88.8333 290.5,73.1667 290.5,57.5C 293.833,57.5 297.167,57.5 300.5,57.5C 300.5,70.1667 300.5,82.8333 300.5,95.5C 310.833,95.5 321.167,95.5 331.5,95.5 Z"/></g>
<g><path style="opacity:0.349" fill="#efefef" d="M 331.5,95.5 C 332.479,98.6248 332.813,101.958 332.5,105.5C 318.323,105.829 304.323,105.496 290.5,104.5C 290.833,104.5 291.167,104.5 291.5,104.5C 304.833,104.5 318.167,104.5 331.5,104.5C 331.5,101.833 331.5,99.1667 331.5,96.5C 331.5,96.1667 331.5,95.8333 331.5,95.5 Z"/></g>
<g><path style="opacity:0.999" fill="#fdfdfd" d="M 212.5,172.5 C 207.167,172.5 201.833,172.5 196.5,172.5C 196.5,164.167 196.5,155.833 196.5,147.5C 201.179,147.334 205.845,147.501 210.5,148C 213.548,148.606 216.048,150.106 218,152.5C 219.545,157.047 219.879,161.713 219,166.5C 217.506,169.314 215.34,171.314 212.5,172.5 Z M 201.5,152.5 C 209.562,151.421 213.729,154.754 214,162.5C 211.341,167.495 207.341,169.162 202,167.5C 201.501,162.511 201.334,157.511 201.5,152.5 Z"/></g>
<g><path style="opacity:0.994" fill="#fefefe" d="M 246.5,172.5 C 240.167,172.5 233.833,172.5 227.5,172.5C 227.334,164.493 227.5,156.493 228,148.5C 233.741,147.525 239.575,147.192 245.5,147.5C 245.5,149.167 245.5,150.833 245.5,152.5C 241.167,152.5 236.833,152.5 232.5,152.5C 232.338,154.527 232.505,156.527 233,158.5C 236.409,157.378 239.909,157.211 243.5,158C 244.38,159.356 244.714,160.856 244.5,162.5C 240.5,162.5 236.5,162.5 232.5,162.5C 232.5,164.5 232.5,166.5 232.5,168.5C 237.167,168.5 241.833,168.5 246.5,168.5C 246.5,169.833 246.5,171.167 246.5,172.5 Z"/></g>
<g><path style="opacity:0.978" fill="#fdfdfd" d="M 334.5,172.5 C 332.5,172.5 330.5,172.5 328.5,172.5C 327.736,167.143 324.902,165.143 320,166.5C 319.82,168.488 319.986,170.488 320.5,172.5C 318.5,172.5 316.5,172.5 314.5,172.5C 314.5,164.167 314.5,155.833 314.5,147.5C 319.179,147.334 323.845,147.501 328.5,148C 334.161,149.82 336.328,153.653 335,159.5C 334.654,161.848 333.487,163.681 331.5,165C 333.693,167.025 334.693,169.525 334.5,172.5 Z M 320.5,152.5 C 322.527,152.338 324.527,152.505 326.5,153C 330.037,154.826 330.371,157.16 327.5,160C 324.854,160.497 322.187,160.664 319.5,160.5C 319.279,157.721 319.612,155.054 320.5,152.5 Z"/></g>
<g><path style="opacity:1" fill="#fcfcfc" d="M 271.5,172.5 C 267.5,172.5 263.5,172.5 259.5,172.5C 251.999,166.98 250.499,159.98 255,151.5C 261.148,146.687 267.481,146.354 274,150.5C 274.986,152.925 274.319,154.591 272,155.5C 265.316,150.75 260.483,152.25 257.5,160C 258.28,164.613 260.947,167.447 265.5,168.5C 267.972,166.749 270.639,165.915 273.5,166C 275.067,168.906 274.4,171.072 271.5,172.5 Z"/></g>
<g><path style="opacity:1" fill="#fcfcfc" d="M 300.5,172.5 C 296.167,172.5 291.833,172.5 287.5,172.5C 279.049,165.722 278.383,158.222 285.5,150C 291.167,146.667 296.833,146.667 302.5,150C 309.538,158.254 308.871,165.754 300.5,172.5 Z M 291.5,152.5 C 298.514,153.005 301.68,156.672 301,163.5C 294.556,170.521 289.723,169.521 286.5,160.5C 286.672,156.807 288.339,154.141 291.5,152.5 Z"/></g>
<g><path style="opacity:0.69" fill="#e0e0e0" d="M -0.5,152.5 C 45.8333,152.5 92.1667,152.5 138.5,152.5C 138.5,152.833 138.5,153.167 138.5,153.5C 92.5,153.5 46.5,153.5 0.5,153.5C 0.5,159.167 0.5,164.833 0.5,170.5C 0.166667,170.5 -0.166667,170.5 -0.5,170.5C -0.5,164.5 -0.5,158.5 -0.5,152.5 Z"/></g>
<g><path style="opacity:0.69" fill="#e2e2e2" d="M 534.5,152.5 C 534.5,158.5 534.5,164.5 534.5,170.5C 534.167,170.5 533.833,170.5 533.5,170.5C 533.5,164.833 533.5,159.167 533.5,153.5C 487.5,153.5 441.5,153.5 395.5,153.5C 395.822,159.358 395.489,165.025 394.5,170.5C 394.5,164.5 394.5,158.5 394.5,152.5C 441.167,152.5 487.833,152.5 534.5,152.5 Z"/></g>
<g><path style="opacity:1" fill="#fefffe" d="M 138.5,153.5 C 138.807,159.093 138.473,164.593 137.5,170C 91.8345,170.5 46.1679,170.667 0.5,170.5C 0.5,164.833 0.5,159.167 0.5,153.5C 46.5,153.5 92.5,153.5 138.5,153.5 Z"/></g>
<g><path style="opacity:1" fill="#fefefe" d="M 533.5,170.5 C 487.167,171.833 440.833,171.833 394.5,170.5C 395.489,165.025 395.822,159.358 395.5,153.5C 441.5,153.5 487.5,153.5 533.5,153.5C 533.5,159.167 533.5,164.833 533.5,170.5 Z"/></g>
<g><path style="opacity:0.408" fill="#f2f2f2" d="M 138.5,152.5 C 139.826,158.568 139.826,164.734 138.5,171C 92.1679,171.5 45.8345,171.667 -0.5,171.5C -0.5,171.167 -0.5,170.833 -0.5,170.5C -0.166667,170.5 0.166667,170.5 0.5,170.5C 46.1679,170.667 91.8345,170.5 137.5,170C 138.473,164.593 138.807,159.093 138.5,153.5C 138.5,153.167 138.5,152.833 138.5,152.5 Z"/></g>
</svg>
